<?xml version="1.0" encoding="utf-8"?>
<!-- Generator: Adobe Illustrator 26.2.1, SVG Export Plug-In . SVG Version: 6.00 Build 0)  -->
<svg version="1.1" id="Layer_1" xmlns="http://www.w3.org/2000/svg" xmlns:xlink="http://www.w3.org/1999/xlink" x="0px" y="0px"
	 viewBox="0 0 1000 500" style="enable-background:new 0 0 1000 500;" xml:space="preserve">
<style type="text/css">
	.st0{clip-path:url(#SVGID_00000062873659402788620330000013804957616190756736_);fill:#990000;}
	.st1{clip-path:url(#SVGID_00000062873659402788620330000013804957616190756736_);}
</style>
<g>
	<defs>
		<rect id="SVGID_1_" width="1000" height="500"/>
	</defs>
	<clipPath id="SVGID_00000165956997578644806420000007543910582983555768_">
		<use xlink:href="#SVGID_1_"  style="overflow:visible;"/>
	</clipPath>
	<path style="clip-path:url(#SVGID_00000165956997578644806420000007543910582983555768_);fill:#990000;" d="M705.33,400.51
		c0-8.95,6.69-12.81,13.83-12.81c8.27,0,14.17,4.2,15.86,13.04h0.68c-0.11-1.7-0.11-4.54-0.11-6.23c0-3.06,0.11-5.1,0.35-7.48
		c-0.68,0.11-1.25,0.11-1.93,0.11c-4.42,0-8.5-1.81-15.08-1.81c-12.13,0-20.97,8.05-20.97,20.29c0,24.71,34,24.14,34,46.81
		c0,10.43-7.59,15.3-15.41,15.3c-8.95,0-17.79-4.99-17.79-14.28c0-0.9,0.12-1.82,0.23-2.83h-0.57c-1.02,2.26-1.36,5.1-1.36,7.14
		c0,2.84,0.57,5.22,0.57,7.82c0,1.02,0,2.38-0.11,2.95c0.68-0.11,1.01-0.11,1.69-0.11c5.44,0,8.72,2.15,16.32,2.15
		c13.26,0,23.58-8.84,23.58-23.01C739.11,421.59,705.33,422.15,705.33,400.51"/>
	<path style="clip-path:url(#SVGID_00000165956997578644806420000007543910582983555768_);fill:#990000;" d="M849.72,385.39
		c-26.05,0-42,21.46-42,43.15c0,21.11,15.6,42,41.08,42c23.86,0,41.77-18.93,41.77-42.34C890.57,403.64,872.21,385.39,849.72,385.39
		 M848.8,467.9c-16.75,0-30.4-12.04-30.4-39.7c0-28.69,15.15-40.28,30.4-40.28c15.49,0,31.22,11.93,31.22,40.96
		C880.02,455.39,866.13,467.9,848.8,467.9"/>
	<path style="clip-path:url(#SVGID_00000165956997578644806420000007543910582983555768_);fill:#990000;" d="M934.87,430
		c10.96-3.97,16.21-12.4,16.21-21.13c0-13.53-9.9-23.33-27.81-23.33c-2.59,0-8.72,0.24-12.25,0.24c-5.18,0-7.3,0-11.31-0.24v0.59
		c4.48,0.7,5.66,2.8,5.66,10.61v62.63c0,9.33-1.53,9.91-5.9,10.61v0.58c2.6-0.12,5.9-0.23,10.25-0.23c4.01,0,7.78,0.11,10.25,0.23
		v-0.58c-4.36-0.7-5.89-1.28-5.89-10.61v-26.94h7.54c1.55,0,3.37-0.21,4.97-0.45c2.57,2.31,5.55,8.42,6.94,10.95
		c13.79,25.89,15.32,27.29,27.46,27.76c1.42,0,1.88,0,2.95-0.12v-0.7C952.87,466.06,939.85,433.47,934.87,430 M919.73,429.98h-5.66
		V389.4c3.42-0.93,5.78-1.17,8.48-1.17c12.25,0,18.62,9.79,18.62,22.16C941.18,421.47,936.7,429.98,919.73,429.98"/>
	<path style="clip-path:url(#SVGID_00000165956997578644806420000007543910582983555768_);fill:#990000;" d="M747.07,385.23
		c-1.19,4.88-2.45,8.29-3.21,12.12h0.58c3.51-7.49,9.02-7.49,27.52-7.49v69.44c0,9.37-1.52,9.95-5.85,10.66v0.59
		c2.58-0.12,5.85-0.24,10.18-0.24c3.98,0,7.73,0.12,10.19,0.24v-0.59c-4.33-0.7-5.85-1.29-5.85-10.66v-69.44
		c20.73,0,24.12,0.7,24.12,4.33c0,0.59-0.12,1.29-0.23,1.76h0.7c0.34-1.86,1.67-7.5,2.69-10.69
		C801.03,385.38,772.79,385.83,747.07,385.23"/>
	<path style="clip-path:url(#SVGID_00000165956997578644806420000007543910582983555768_);fill:#990000;" d="M676.08,385.49
		c-4.15,0-8.73-0.11-11.2-0.23v0.56c4.26,0.68,7.05,1.25,7.05,10.29v51.06c0,10.17-4.89,20.39-12.41,20.39c-1.47,0-2.79-0.12-4-0.32
		c-5-1.23-8.2-4.52-10.54-7.62c-0.28-0.37-0.54-0.74-0.79-1.11c-2.2-3.24-3.17-6.08-3.2-6.14c-0.02-0.07-0.09-0.11-0.17-0.1
		c-0.07,0.02-0.12,0.09-0.11,0.16l1.72,13.47c0,0.04,0.03,0.08,0.06,0.1c5.27,3.42,11.82,4.13,11.82,4.13
		c3.38,0.52,5.63,0.32,5.63,0.32c12.24,0,20.29-10.17,20.29-24.57v-49.77c0-9.05,2.35-9.39,6.6-10.29v-0.56
		C684.48,385.37,679.9,385.49,676.08,385.49"/>
	<path style="clip-path:url(#SVGID_00000165956997578644806420000007543910582983555768_);fill:#990000;" d="M648.65,342.88h313.26
		V29.21H648.65V342.88z M668.46,90.53c0.81-24.95,18.36-37.65,35.41-39.18c0.1-0.01,9.89-0.86,19.21,2.89
		c4.09,1.65,7.03,3.73,9.63,5.57l0.06,0.04c3.84,2.71,6.88,4.85,11.21,3.52c4.93-1.52,5.89-5.36,6.53-7.93
		c0.15-0.61,0.44-1.73,0.65-1.84c0.23-0.07,1.1,0.26,1.88,1.45c0.91,1.37,3.36,6.58-3.15,15.95c-3.61,5.18-9.43,6.25-9.67,6.29
		c-0.25,0.04-0.47,0.19-0.61,0.41c-0.13,0.22-0.17,0.48-0.1,0.72c0.34,1.31,0.41,2.28,0.48,3.25c0.24,3.27-0.06,6.35-2.23,11.6
		c-3.31,7.99-9.97,12.97-18.77,14.01c-8.52,1-15.44-3.78-17.88-9.03c-2.25-4.85-2.37-10.54-0.34-15.62c0.5-1.26,1.36-2.27,2.08-2.47
		c0.33-0.08,0.6,0,0.89,0.25c0.71,0.6,0.76,2.06,0.83,3.95c0.07,1.91,0.16,4.3,1.02,6.85c1.32,3.91,5.6,7.61,11.22,7.07
		c8.41-0.79,13.54-6.75,13.72-15.96c0.18-9.69-6.01-21.15-24.08-21.58c-0.24,0-0.47-0.01-0.7-0.01c-6.84,0-13.09,2.64-18.08,7.63
		c-5.84,5.85-9.56,14.74-9.69,23.2c-0.26,16.52,8.3,26.13,15.53,31.28c7.3,5.19,18.73,5.53,33.07,0.98
		c4.88-1.55,10.15-3.74,15.25-5.86l-0.1-0.23l0.16,0.2c4.31-1.79,8.77-3.65,13.02-5.13c2.51-0.87,5.18-1.58,7.93-2.07l0.41-0.07
		l-0.26-0.33c-1.13-1.44-2.53-3.39-4.31-5.87c-3.67-5.13-4.75-14.64-3.53-16.64c0.53-0.87,1.12-0.99,1.36-1.01
		c0.22-0.02,0.35,0.06,0.37,0.06c0.01,0.07,0.02,0.58,0.02,0.66c-0.04,0.48,0.02,2.65,1.02,3.81c1.3,1.51,3.08,1.79,3.82,1.4
		c0.28-0.15,0.47-0.35,0.55-0.61c0.24-0.8,1.53-4.93,3.78-8.21c1.88-2.73,7.69-6.99,11.05-6.99c0.09,0,0.18,0,0.27,0.01
		c0.91,0.07,1.53,0.47,1.9,1.23c0.45,0.94-0.99,2.46-1.47,2.96c-2.99,3.13-6.46,7.71-6.74,15.43c-0.13,3.61,0.9,6.6,3.06,8.89
		c4.1,4.36,11.06,4.86,12.44,4.9v7.91c-0.21-0.01-0.43-0.02-0.65-0.02c-6.97,0-12.45,8.37-14.35,16.98
		c-1.54,6.99-0.18,16.9,0.41,19.83c0.56,2.72,0.06,3.31-0.1,3.42c-0.09,0.06-0.21,0.11-0.47,0.06c-1.47-0.32-4.14-3.39-7.14-8.2
		c-2.21-3.55-1.57-7.94-1.23-10.3c0.2-1.33,0.28-1.89-0.23-2.26l-0.1-0.07c-0.31-0.24-0.73-0.52-1.27-0.54h-0.07
		c-0.68,0-1.39,0.42-2.18,1.28c-0.62,0.69-0.98,1.24-1.22,1.6c-0.35,0.52-0.35,0.52-1.29,0.17c-0.04-0.01-0.1-0.04-0.16-0.22
		c-0.6-1.72,1.31-7.82,3.79-12.09c1.98-3.43,4.09-5.89,7.06-8.23l0.86-0.68l-1.08,0.24c-10.03,2.29-20.13,6.3-26.35,10.49
		c-7.94,5.34-14.37,11.68-19.1,18.86c-0.87-0.53-1.63-0.94-3.71-1.88c-1.28-0.59-3.22-1.22-4.68-1.39c1.98-2.64,5.31-6.25,6.7-7.73
		l0.12-0.14c0.19-0.32,0.16-0.74-0.08-1.04c-0.24-0.3-0.65-0.41-1-0.27c-0.37,0.15-9.31,3.59-25.14-2.34
		C681.1,129.03,667.68,115.13,668.46,90.53 M673.27,164.54c0.67-1.82,1.24-3.13,1.74-4.28c1.07-2.46,1.72-3.94,1.98-7.42
		c0.31-3.98-0.94-7.02-1.7-7.81c0.98,0.12,4.12,1.46,5.34,4.03c1.04,2.16,2.53,7.71,2.32,8.6c-0.05,0.22,0.06,0.32,0.12,0.35
		c0.21,0.14,0.38,0.01,1.09-0.52c2.13-1.6,8.61-6.47,20.01-6.52h0.14c21.03,0,30.26,19.48,30.35,19.67l0.05,0.11l0.11,0.03
		c0.12,0.03,2.89,0.8,8.47-1.61c2.18-0.94,3.5-2.1,4.78-3.24c2.11-1.86,3.93-3.46,9.09-3.62c5.16-0.19,9.02,2.74,9.72,4.82
		c0.16,0.49,0.22,1.16-0.41,1.6c-0.77,0.54-0.91,0.48-1.38,0.25c-0.71-0.34-1.9-0.91-5.76-0.29c-3.2,0.5-4.7,3.46-6.3,6.6
		c-1.71,3.39-3.49,6.89-7.55,7.98c-3.7,1-8.07-1.54-8.85-2.84c-0.22-0.36-0.55-0.82-0.98-0.75c-0.41,0.08-0.52,0.65-0.55,0.79
		c0,0.03-0.12,3.25-2.11,8.83c-1.85,5.15-10.32,17.54-27.03,13.02c-10.21-2.75-14.2-12.34-13.77-18.26
		c0.14-1.95,0.78-3.23,1.65-3.33c0.75-0.09,1.38,0.46,1.57,1.02c0.76,2.24,1.54,4.41,2.74,6.29c1.66,2.63,4.74,5.72,8.37,6.51
		c8.28,1.82,13.39-2.42,14.33-3.29c3.17-2.92,4.89-7.81,4.62-13.07c-0.36-6.7-3.92-10.99-6.85-13.42c-3.71-3.07-8.52-4.87-13.2-4.94
		c-0.12,0-0.25,0-0.37,0c-6.07,0-12.28,2.46-17.09,6.78c-6.05,5.43-9.63,13.54-10.35,23.45c-0.62,8.47,2.84,17.91,9.04,24.63
		c4.83,5.24,10.8,8.16,16.82,8.21c0.11,0,0.22,0,0.33,0c15.85,0,26.09-9.78,36.93-20.13c10.14-9.68,20.63-19.7,37.04-24.23
		c1.21-0.34,6.86-0.87,8.07-0.92l-0.29,8.95c-9.21,1.71-22.02,7.63-21.38,14.01c0.63,6.32,4.68,9.7,6.62,11.32
		c0.43,0.36,0.88,0.74,0.93,0.82c-0.02,0.05-0.21,0.22-0.79,0.43c-1.78,0.65-5.8,1.12-9-0.37c-4.23-1.97-8.42-8.9-8.46-8.97
		l-0.17-0.28l-0.22,0.24c-0.12,0.13-12.69,13.25-19.52,18.25c-4.42,3.23-16.14,11.83-30,11.21c-9.56-0.43-18.43-4.8-24.95-12.3
		c-6.85-7.87-10.54-18.72-10.39-30.55C668.36,179.68,669.54,174.78,673.27,164.54 M700.51,215.78c-2.62-0.24-9.26-4.72-9.64-5.85
		c-0.05-2.35,0.59-7.52,1.47-10.55c3.31,5.78,8.8,8.28,8.8,8.28C700.22,211.48,700.51,215.78,700.51,215.78 M699.25,175.77
		c0.58-3.81,2.74-7.8,4.06-9.56c5.05-0.94,8.33,1.89,8.78,2.32c-2.77,5.35-4.53,11.23-6.07,17.2
		C704.18,184.92,701.51,182.31,699.25,175.77 M708.25,300.87c-4.34,9.18-11.57,17.22-12.9,15.93c-1.12-1.09,0.32-2.03,1.02-4.73
		c0.73-2.79,0.92-3.35,0.92-3.35s-1.97,2.79-8.87,7.1c-6.89,4.31-8.17,4.64-9.3,2.93c-0.74-1.12,1.02-2.29,2.67-5.19
		c1.59-2.81,1.13-2.65,1.13-2.65s-5.88-0.55-10.68-2.68c-4.83-2.15-9.9-7.11-9.75-8.13c0.2-1.33,2.18-2.05,5.83-3.87
		c3.86-1.91,6.55-4.42,6.55-4.42s-2.6-0.63-4.03-1.3c-2.32-1.11-4.65-2.24-3.19-3.65c1.27-1.22,7.5,2.97,16.97-5.96
		c8.37-7.9,8.4-19.54,8.4-19.54s4.09,13.54-1.32,24.35c-6.65,13.28-19.07,13.36-17.72,16.14c1.68,3.44,16.9,0.33,23.45-15.57
		c5.49-13.3-0.27-30.22-4.46-40.22c-1.19-2.86-2.78-6.74-3.81-9.74c3.82,1.72,6.88,2.58,10.01,2.94l0.02-0.04
		c0.01,0.02,0.02,0.03,0.03,0.05c0.08,0,0.52,0.85,0.52,0.85c3.69,5.89,9.43,7.98,12.44,9.12c2.89,1.1,5.99,1.64,9.1,1.63
		c2.69-0.01,5.42-0.41,7.96-1.38c1.62-0.61,3.24-1.47,4.45-2.77c3.65-3.92,4.62-16.18,6.26-17.08c0.77-0.42,2.62,2.57,3.34,4.85
		c0.72,2.27,0.36,4.53,1.74,5.06c0.99,0.37,1.6-0.74,3.7-3.18c2.93-3.46,2.51-4.84,3.98-4.29c1.48,0.57-0.1,8.13-0.81,12.23
		c-0.73,4.13-2.72,10.12-2.72,10.12s4.91-3.2,9.48-5.25c12.78-5.75,17.8-3.96,17.89-2.41c0.09,1.56-2.92,1.84-6.25,5.78
		c-2.42,2.85-1.82,3.58-1.82,3.58s1.92,0.06,7.26-1.49c3.8-1.1,7.07-2.84,8.16-1.26c1.09,1.59-3.88,8.26-11.52,13.55
		c-7.66,5.31-13.88,7.28-13.88,7.28s1.47,1.55,5.24,2.23c3.77,0.67,5.29,0.1,5.64,1.2c0.43,1.49-3.75,2.74-10.92,3.49
		c-10.14,1.05-15.39-3.39-15.39-3.39s1.3,3.66-0.23,7.41c-1.54,3.76-1.89,7.27-3.39,7.05c-1.51-0.23,0.3-3.76-2.55-7.3
		c-3.07-3.8-6.54-4.6-11.77-8.64c-5.09-3.91-5.24-6.97-5.24-6.97s8.86,3.34,23.4,1.03c13.96-2.21,18.26-6.42,17.23-7.95
		c-0.94-1.41-3.22,0.41-9.82,1.89c-7.71,1.74-18.11,1.27-29.65-0.66c-4.09-0.69-9.58-2.6-14.57-5.92c1.94,3.85,5.19,10.85,5.9,15.81
		C713.66,282.07,712.61,291.67,708.25,300.87 M797.36,307.12c-11.83,10.68-20.98,13.35-32.1,15.26c-12.41,2.13-35.99-1.2-35.99-1.2
		l-12.15-39.33c0,0,12.61,11.91,19.26,17.16c6.64,5.25,12.84,8.11,22.25,8.11c9.4,0,15.8-2.38,22.69-9.78
		c6.88-7.38,9.51-16.92,11.24-28.13c1.23-8.08,0.68-30.51,0.68-35.76l1.73-121.82c0,0,0.86-26.29-1.04-32.91
		c-1.89-6.62-5.84-11.44-8.25-13.94c-5.3-5.51-16.51-7.34-16.51-7.34c-3.26-0.53-3.94-2.12-3.7-3.71c0.35-2.33,2.38-2.71,2.38-2.71
		l79.53,0.17c0,0,1.98,0.22,2.32,2.54c0.25,1.59-0.43,3.18-3.7,3.71c0,0-11.21,1.83-16.5,7.34c-2.41,2.5-6.36,7.32-8.25,13.94
		c-1.89,6.62-1.03,32.91-1.03,32.91v122.12c0,0,0.29,23.54-2.75,35.94C815.34,278.35,810.42,295.32,797.36,307.12 M839.15,233.18
		c1,8.18,7.82,16,17.49,14.91c4.15-0.46,7.05-2.35,9.06-4.46l-0.66-0.53l0.16-0.17c-1.3-1.19-5.81-5.44-9.51-10.14
		c-3.59-4.58-5.36-7.09-5.69-7.56l-1.05-1.46c0.09-0.08,1.28-0.96,4.88-0.82c3.94,0.16,7.76,3.23,8.85,4.16l0.02,0.02
		c0.02,0.02,1.82,2.04,7.74,8.21c7,7.31,12.09,10.8,12.88,11.33c0.03,2.11-0.58,6.22-1.34,9.08l-0.04-0.02
		c-3.21-1.72-7.44-5.25-9.47-6.94c-0.29-0.24-0.52-0.44-0.72-0.6c-2.54,3.09-6.38,6.22-12.06,7.75c-1.33,0.33-2.74,0.51-4.18,0.47
		c-12.57-0.35-20.93-9.65-23-18.83c-0.77-3.45-0.48-7.75-0.34-10.72c0.13-2.63,0.24-4.9-0.33-6.58c-0.66-1.92-1.58-3.17-2.19-4
		c-0.59-0.8-0.98-1.33-0.6-1.79c0.67-0.8,2.85-0.32,4.88,1.07c1.3,0.87,1.85,1.84,2.06,2.39c1.21-1.81,7.06-9.75,17.06-10.12
		c3.41-0.12,6.46,0.62,8.81,2.16c1.9,1.24,3.27,2.95,3.77,4.69c0.39,1.41,0.4,2.51-0.56,3c-0.48,0.24-1.56-0.23-3.01-0.94
		c-2.11-1.04-5.43-2.17-9.35-1.7c-3.11,0.37-7.59,2.52-10.57,6.51C839.65,224.83,838.62,228.86,839.15,233.18 M832.55,159.02
		c-1.8-12.33-1.04-18.14-1.04-18.14c2.75,0.96,7.44,5.6,9.07,7.34c0,0-0.34,1.62,0.84,9.27c0.87,5.71,2.58,11.02,3.21,13.2
		l-8.64,4.04C835.17,171.92,833.52,165.69,832.55,159.02 M840.41,139.41c-6.17-5.71-11.22-7.23-11.22-7.23v-10.75
		c2.91,1.43,9.75,5.05,13.69,8.32c3.86,3.2,6.8,6.4,9.19,9.06l-1.67,10.9C847.66,146.61,844,142.73,840.41,139.41 M939.81,302.04
		c-0.02,0.06-0.06,0.18-0.1,0.34c-2.36,8.46-7.6,14.3-14.78,16.45c-2.24,0.67-4.3,0.98-6.25,0.98c-4.79,0-8.88-1.85-13.19-4.58
		c-0.29-0.05-2.71-0.45-5.14,0.9c-1.25,0.69-2.14,1.58-2.79,2.23c-0.59,0.59-0.93,0.94-1.27,0.83c-0.14-0.04-0.26-0.18-0.35-0.41
		c-0.35-0.91-0.33-3.4,1.2-6.23c0.96-1.75,2.05-2.85,2.39-3.18c-0.49-1.12-3.58-8.81,0.4-17.29c2.68-5.72,9.71-8.81,15.03-6.59
		c5.38,2.23,7.04,6.33,6.84,9.17c-0.17,2.35-0.98,4.23-2.17,5.04c-0.57,0.39-1.17,0.49-1.71,0.3c-0.67-0.25-0.71-1.01-0.76-1.98
		c-0.08-1.61-0.18-3.82-3.14-5.42c-1.49-0.81-3.22-0.91-4.74-0.28c-1.12,0.46-2.63,1.53-3.46,3.98c-1.11,3.27-0.98,6.38,0.39,9
		c1.68,3.21,5.19,5.6,9.89,6.73c6.92,1.66,14.15-3.49,16.47-11.73c0.69-2.45,1.05-5.37,0.14-8.4c-1.82-6.07-6-11.65-16.04-16.5
		c-3.46-1.67-10.52-4.79-13.32-6.05c1.53-4.42,1.72-5.83,2.23-7.35c0.91-1.49,3.52-3.9,5.99-4.48c2.9-0.69,6.27,0.76,6.16,1.31
		c-0.1,0.52-3.88,1.45-6.02,6.4c0.85,0.35,7.95,2.3,14.06,6.25c10.27,6.63,13.07,13.71,13.93,16.77
		C941.17,293.45,940.92,298.21,939.81,302.04 M920.73,227.5c0.08-0.01,0.17-0.02,0.24-0.02c0,0-0.01,0.02-0.02,0.03
		C920.88,227.51,920.8,227.5,920.73,227.5 M942.15,241.5c-1.99,11.91-8.79,16.97-14.48,17.73c-0.46,0.06-0.91,0.09-1.33,0.09
		c-1.67,0-2.99-0.46-3.32-1.23c-0.14-0.32-0.16-0.58-0.07-0.8c0.19-0.47,0.82-0.7,1.77-1.05c1.13-0.41,2.69-0.99,4.31-2.28
		c4.85-3.83,4.6-5.58,4.41-6.85c-0.02-0.15-0.07-0.24-0.16-0.29c-0.3-0.16-1.03,0.22-1.89,0.67l-0.38,0.19
		c-1.1,0.56-2.16,0.65-2.92,0.28c-0.46-0.23-0.75-0.63-0.86-1.15c-0.11-0.57,0.52-1.13,1.32-1.84c0.63-0.56,1.34-1.2,1.82-1.95
		c2.46-3.92,2.93-8.55,1.01-12.27c-1.43-2.74-3.43-5.31-9.4-5.93c-0.11-0.01-0.25,0-0.37-0.01c0-0.01,0.02-0.03,0.02-0.03
		c-0.09,0-0.17,0.02-0.25,0.02c-0.75,0-1.58,0.1-2.45,0.3c-6.6,1.24-11.07,5.71-14.03,10.46c-0.04,0.07-0.08,0.14-0.13,0.21
		c-4.06,6.01-5.07,15.2-5.31,17.01l0.01,0.05c-1.31,8.43-4.07,20.83-21.67,42.73c-1.99,2.48-3.63,6.09-2.59,10.13
		c1.81,7.02,8.58,7.63,8.53,8.36c-0.06,0.97-1.47,1.06-3.96,0.87c-2.48-0.18-3.39-0.99-3.39-0.99s-0.65,1.6,3.47,4.6
		c3.18,2.31,6.74,2.18,6.83,3.2c0.11,1.21-19.51,5.76-20.72-14.01c-0.03-0.46-0.05-0.91-0.07-1.35
		c-21.12,19.35-27.35,20.34-28.85,18.28c-0.71-0.99,1.34-0.78,5.36-5.36c4.13-4.7,4.24-6.79,4.24-6.79s-8.24,4.46-17.78,3.59
		c-9.74-0.89-17.95-7.76-17.3-10.44c0.57-2.3,6.35,1.64,13.37,0.53c6.45-1.02,7.05-3.59,7.05-3.59s-1.26-0.02-3.4-2.22
		c-2.15-2.2-5.26-4.03-3.5-5.9c1.01-1.06,5.88,1.15,10.71,1.16c6.1,0,9.97-1.37,9.97-1.37s-2.51-0.91-5.12-3.45
		c-2.63-2.55-3.17-5.18-2.38-5.85c0.43-0.37,1.49,1.69,4.88,1.62c3.96-0.09,4.45-0.98,4.45-0.98s-1.7-1.53-2.45-3.04
		c-0.77-1.52-3.12-5.99-1.62-7.7c0.47-0.56,4.97,5.02,11.6,5.64c11.41,1.03,23.97-8.06,23.97-8.06s-6.16,7.59-19.33,18.91
		c-8.42,7.24-19.01,13.12-18.41,14.49c0.73,1.67,9.06-0.24,23.4-12.28c4.6-3.87,7.53-6.4,13.81-14.1
		c11.1-13.63,13.59-28.63,11.39-40.63l-0.03,0.01c-0.88-4.7-2.12-8.98-3.61-12.53c-6.15-13.33-12.85-19.84-23.91-24.1
		c-9.87-3.8-17.47-0.34-22.02,1.73c-2.34,1.07-3.88,1.77-4.52,0.88c-2.04-2.84,2.05-6.74,5.66-10.17c4.59-4.37,7.66-6.1,8.45-6.5
		c-0.79-0.4-3.82-1.86-6.67-2.05c-1.47-0.1-3.15,0.16-4.63,0.38c-2.34,0.35-4.18,0.64-4.4-0.51c-0.47-2.33,8.93-6.45,14.07-8.14
		c5.19-1.71,9.35-1.9,10.09-1.92c-0.12-1.11-0.95-9.76,0-22.42c0.5-6.65,1.72-11.27,2.65-13.98c1.16-3.39,2.56-5.75,3.83-6.48
		c0.51-0.29,0.97-0.3,1.38-0.06c0.85,0.51,0.84,2.22,0.81,4.83c-0.02,1.58-0.05,3.55,0.14,5.7c0.56,6.33,2.63,9.87,3.8,10.61
		c0.21,0.12,0.38,0.17,0.49,0.11c0.45-0.21,0.58-0.98,0.77-2.16c0.24-1.52,0.57-3.61,1.82-6.18c2.07-4.29,6.05-9.44,7.45-9.02
		c0.35,0.1,0.5,0.52,0.45,1.23c-0.13,2.02-0.43,3.78-0.74,5.65c-0.64,3.85-1.37,8.21-0.97,16.32c0.58,11.89,6.11,13.49,6.79,13.64
		c0.35-0.62,3.06-5.31,6.9-9.39c0.82-0.87,1.61-1.76,2.37-2.62c2.44-2.74,4.38-4.92,5.74-4.92c0.04,0,0.08,0,0.11,0.01
		c0.38,0.04,0.7,0.26,0.95,0.67c0.48,0.77-0.31,2.69-1.61,5.86c-1.77,4.32-4.46,10.86-5.61,18.96c-2.19,15.41,0.03,30.33,0.05,30.48
		l0.16,1.08l-0.36-1.02c-0.01-0.04-1.34-3.65-6.76-11.63c-2.43-3.59-4.35-5.69-6.2-7.72c-2.35-2.57-4.55-4.99-7.61-10.12
		c-3.55-5.94-4.41-10.38-4.98-13.32c-0.49-2.48-0.73-3.73-2.15-3.86c-0.16-0.02-0.29,0.08-0.42,0.28
		c-1.21,1.95-0.54,12.7,2.74,19.13c1.77,3.45,3.86,6.16,6.29,9.31c2.49,3.21,5.3,6.86,8.69,12.37c6.17,10.02,9.24,17.44,10.74,21.91
		c0.36,1.09,0.65,2.05,0.88,2.9c0.76-1.47,1.98-3.23,2.3-3.58c10.92-12.04,20.4-12.86,26.95-11.27l0.09,0.02
		c4.76,0.98,8.94,3.74,11.89,7.92C941.61,229.89,943.07,236.02,942.15,241.5 M941.36,169.08c-2.75,1.8-5.76,2.12-5.79,2.13
		c-0.08,0.01-0.16,0.07-0.18,0.16c-0.03,0.09,0,0.18,0.07,0.24c0.07,0.06,7.57,6.52,8.34,15.36c0.79,8.99-0.6,13.92-5.09,18.21
		c-3.62,3.43-8.83,3.9-10.82,3.39c-0.42-0.11-0.55-0.23-0.56-0.27c-0.3-1.12,1.41-2.29,3.4-3.65c0.44-0.3,0.9-0.61,1.36-0.95
		c2.56-1.83,4.01-4.84,3.17-6.58c-0.26-0.53-0.74-0.66-1.32-0.61c-0.44,0.04-0.95,0.19-1.44,0.33c-1.04,0.31-2.13,0.62-2.67,0.01
		c-0.61-0.68-0.39-1.2,0.16-2.33c0.43-0.89,0.98-1.99,1.09-3.6c0.25-3.37-0.15-12.34-5-13.35c-0.19-0.04-0.38,0-0.52,0.12
		c-0.46,0.39-0.47,1.51-0.49,3.21c-0.03,2.27-0.08,5.37-1.39,7.42c-2.03,3.16-5.23,5.56-6.76,5.58c-0.34,0-0.58-0.1-0.73-0.32
		c-0.2-0.3-0.05-1.02,0.16-2.11c0.52-2.6,1.51-7.42,0.09-16.37c-0.5-3.16-2.37-6.54-4.19-9.82c-1.75-3.16-3.41-6.15-3.77-8.75
		c-0.66-4.81-0.08-6.8,2.61-8.84c1.55-1.18,1.86-2.3,1.85-3.04c-0.01-0.72-0.41-2.08-1.69-2.58c-0.05-0.02-0.11-0.03-0.16-0.05
		c-0.01,0-0.02-0.01-0.04-0.01c-0.64-0.15-1.8-0.26-2.92-0.25c-5.09,0.05-16.97,0.18-25.38-11.23c-6.82-9.26-7.33-17.95-5.98-28.16
		c0-0.02,0-0.05,0-0.07c-0.03-0.16-0.77-4.01-3.99-6.91c-1.55-1.4-3.11-2.17-4.26-2.74c-0.67-0.33-1.37-0.67-1.39-0.89
		c0-0.03,0.03-0.14,0.2-0.31c0.86-0.87,3.7-2.04,7.65-1.45c2.99,0.46,5.07,1.64,5.09,1.65c0.09,0.05,0.21,0.03,0.27-0.05
		c0.08-0.1,7.81-9.21,20.75-8.21c7.71,0.6,15.1,8.15,15.3,16.35c0.2,8.26-3.63,12.53-6.96,13.67c-2.7,0.93-5.2,0.86-6.68-0.2
		c-0.69-0.49-1.09-1.15-1.14-1.86c-0.04-0.68,0.59-1.03,1.69-1.58c1.87-0.95,4.7-2.38,5.06-7.55c0.18-2.63-0.73-5.31-2.45-7.16
		c-1.21-1.31-3.35-2.83-6.85-2.69c-4.52,0.19-8.21,1.98-10.69,5.18c-3.17,4.09-4.24,10.39-3.03,17.71
		c1.76,10.59,11.99,17.98,23.3,16.83c6.65-0.68,12.88-4.41,17.55-10.48c4.43-5.76,7.02-13.14,7.1-20.25
		c0.2-17.73-10.08-36.01-33.51-36.89c-22.48-0.83-36.39,13.11-42.77,21.43c-3.97,5.16-8.15,15.03-11.17,23.04
		c1.35-0.25,5.71-0.84,9.57,1.08c3.93,1.94,8.6,6.7,7.8,8.74c-0.23,0.58-1.43,0.26-3.1-0.19c-2.27-0.61-5.5-0.42-9.17,0.05
		c-6.17,0.8-8.72,2.01-9.4,2.66l0.33-1.11c-0.22,0.68-0.35,1.07-0.36,1.09l-8.43-5.17c1.16-5.28,6.51-27.3,19.94-41.79
		c13.79-14.87,30.27-19.74,44.84-19.87c7.89-0.07,15.25,1.13,21.24,2.49c0.71,0.16,1.39,0.32,2.06,0.46
		c5.76,1.29,11.73,2.47,16.01,1.43c2.29-0.56,4.26-1.52,5.7-2.23c0.91-0.45,1.86-0.91,2.06-0.8c0.03,0.01,0.06,0.06,0.09,0.17
		c0.21,0.93-0.68,3.88-3.32,7.52c-1.7,2.32-3.76,3.62-5.28,4.58c-1.35,0.85-2.32,1.46-2.32,2.36c0,0.45,0.45,1.26,1.26,2.73
		c2.58,4.66,7.94,14.34,7.31,27.95c-0.98,20.94-10.99,29.94-17.62,35.89l-0.8,0.72l-0.08,0.03c-4.39,5.11-3.85,9.74-2.57,12.77
		c1.93,4.57,6.18,8.3,11.68,10.24c3.14,1.11,6.56,1.5,9.05,1.79c1.88,0.21,3.65,0.41,3.85,0.82
		C946.84,164.63,945.1,166.65,941.36,169.08"/>
	
		<rect x="113.62" y="29.26" style="clip-path:url(#SVGID_00000165956997578644806420000007543910582983555768_);" width="214.09" height="201.89"/>
	
		<rect x="338.38" y="29.26" style="clip-path:url(#SVGID_00000165956997578644806420000007543910582983555768_);" width="88.54" height="201.89"/>
	
		<rect x="257.53" y="241.79" style="clip-path:url(#SVGID_00000165956997578644806420000007543910582983555768_);" width="169.4" height="101.16"/>
	
		<rect x="113.6" y="241.8" style="clip-path:url(#SVGID_00000165956997578644806420000007543910582983555768_);" width="133.33" height="101.16"/>
	<path style="clip-path:url(#SVGID_00000165956997578644806420000007543910582983555768_);" d="M252.66,400.56
		c0-8.97,6.72-12.83,13.9-12.83c8.32,0,14.24,4.2,15.95,13.06h0.69c-0.12-1.71-0.12-4.54-0.12-6.25c0-3.07,0.12-5.11,0.34-7.5
		c-0.68,0.11-1.25,0.11-1.94,0.11c-4.44,0-8.54-1.81-15.15-1.81c-12.19,0-21.07,8.06-21.07,20.32c0,24.76,34.17,24.19,34.17,46.9
		c0,10.45-7.64,15.33-15.49,15.33c-9,0-17.88-4.99-17.88-14.31c0-0.9,0.12-1.82,0.23-2.84h-0.57c-1.02,2.27-1.37,5.11-1.37,7.15
		c0,2.84,0.57,5.22,0.57,7.84c0,1.02,0,2.38-0.11,2.95c0.68-0.11,1.02-0.11,1.71-0.11c5.46,0,8.77,2.15,16.4,2.15
		c13.33,0,23.69-8.86,23.69-23.05C286.6,421.68,252.66,422.25,252.66,400.56"/>
	<path style="clip-path:url(#SVGID_00000165956997578644806420000007543910582983555768_);" d="M395.01,385.39
		c-26.11,0-42.09,21.53-42.09,43.28c0,21.18,15.64,42.13,41.16,42.13c23.92,0,41.86-18.99,41.86-42.48
		C435.94,403.69,417.55,385.39,395.01,385.39 M394.09,468.14c-16.79,0-30.47-12.08-30.47-39.82c0-28.77,15.18-40.4,30.47-40.4
		c15.52,0,31.28,11.97,31.28,41.09C425.37,455.59,411.45,468.14,394.09,468.14"/>
	<path style="clip-path:url(#SVGID_00000165956997578644806420000007543910582983555768_);" d="M149.79,430.15
		c11.25-3.93,16.64-12.47,16.64-21.31c0-13.58-9.97-23.41-28-23.41c-2.61,0-8.77,0.24-12.33,0.24c-5.22,0-7.36,0-11.39-0.24v0.59
		c4.51,0.7,5.7,2.81,5.7,10.65v62.84c0,9.37-1.54,9.95-5.93,10.65v0.58c2.61-0.12,5.93-0.23,10.32-0.23c4.03,0,7.82,0.11,10.31,0.23
		v-0.58c-4.38-0.71-5.93-1.29-5.93-10.65v-27.03h7.59c1.42,0,3.07-0.17,4.57-0.38c2.55,2.41,5.47,8.35,6.84,10.83
		c13.88,25.98,15.42,27.38,27.63,27.85c1.43,0,1.9,0,2.96-0.12v-0.7C167.83,466.21,154.98,434.55,149.79,430.15 M134.87,430.02
		h-5.69V389.3c3.44-0.94,5.81-1.17,8.54-1.17c12.34,0,18.74,9.83,18.74,22.24C156.45,421.48,151.95,430.02,134.87,430.02"/>
	<path style="clip-path:url(#SVGID_00000165956997578644806420000007543910582983555768_);" d="M478.11,430.09
		c10.93-3.99,16.17-12.41,16.17-21.11c0-13.55-9.94-23.36-27.93-23.36c-2.61,0-8.76,0.24-12.31,0.24c-5.2,0-7.34,0-11.36-0.24v0.59
		c4.5,0.7,5.68,2.81,5.68,10.63v62.7c0,9.34-1.54,9.93-5.92,10.63v0.58c2.6-0.12,5.92-0.23,10.3-0.23c4.02,0,7.81,0.11,10.3,0.23
		v-0.58c-4.38-0.7-5.92-1.29-5.92-10.63v-26.97h7.58c1.59,0,3.47-0.21,5.1-0.46c2.55,2.38,5.49,8.36,6.87,10.85
		c13.85,25.93,15.39,27.33,27.58,27.8c1.42,0,1.89,0,2.96-0.12v-0.7C496.16,466.15,483.2,433.96,478.11,430.09 M462.8,430.12h-5.68
		v-40.64c3.43-0.93,5.8-1.17,8.52-1.17c12.31,0,18.7,9.81,18.7,22.19C484.34,421.59,479.84,430.12,462.8,430.12"/>
	<path style="clip-path:url(#SVGID_00000165956997578644806420000007543910582983555768_);" d="M177.4,385.35
		c-1.2,4.88-2.46,8.3-3.23,12.13h0.59c3.53-7.5,9.05-7.5,27.63-7.5v69.51c0,9.38-1.53,9.96-5.88,10.67v0.59
		c2.59-0.12,5.88-0.24,10.23-0.24c4,0,7.76,0.12,10.24,0.24v-0.59c-4.35-0.7-5.88-1.29-5.88-10.67v-69.51
		c20.81,0,24.23,0.7,24.23,4.34c0,0.58-0.12,1.29-0.24,1.76h0.71c0.34-1.86,1.68-7.51,2.69-10.7
		C231.58,385.5,203.23,385.95,177.4,385.35"/>
	<path style="clip-path:url(#SVGID_00000165956997578644806420000007543910582983555768_);" d="M293.57,385.39
		c-1.2,4.88-2.46,8.29-3.22,12.12h0.59c3.53-7.5,9.05-7.5,27.62-7.5v69.49c0,9.37-1.53,9.96-5.88,10.66v0.59
		c2.59-0.12,5.88-0.24,10.23-0.24c3.99,0,7.75,0.12,10.22,0.24v-0.59c-4.35-0.7-5.88-1.29-5.88-10.66v-69.49
		c20.8,0,24.21,0.71,24.21,4.34c0,0.58-0.12,1.29-0.23,1.76h0.7c0.34-1.86,1.68-7.5,2.7-10.7
		C347.73,385.54,319.38,385.99,293.57,385.39"/>
	<path style="clip-path:url(#SVGID_00000165956997578644806420000007543910582983555768_);" d="M109.97,470.16
		c-2.97-0.39-4.35-0.9-5.66-3.41l-30.85-82.07h-1.16L46.1,454.17c-4.99,13.18-6.85,14.57-12.76,15.95v0.58
		c2.44-0.12,3.94-0.23,7.89-0.23c4.29,0,8.24,0.11,10.79,0.23v-0.58c-3.94-0.46-5.33-2.43-5.33-5.09c0-2.2,0.93-4.97,1.97-7.86
		l6.96-18.73c4.06-0.12,8.12-0.12,12.3-0.12h16.43l10.17,27.04c0.06,0.25,0.12,0.51,0.12,0.74c0.02,2.2-1.24,3.82-5.07,4.05
		l0.01,0.57c2.55-0.11,6.03-0.23,10.32-0.23c3.94,0,7.66,0.12,10.09,0.23L109.97,470.16z M67.9,434.97c-3.71,0-7.31,0-11.02-0.12
		l12.47-33.64l0.5-1.36l13.21,35.11H67.9z"/>
</g>
</svg>
