<?xml version="1.0" encoding="UTF-8"?>
<svg width="16px" height="16px" viewBox="0 0 16 16" version="1.1" xmlns="http://www.w3.org/2000/svg" xmlns:xlink="http://www.w3.org/1999/xlink">
    <!-- Generator: Sketch 54.1 (76490) - https://sketchapp.com -->
    <title>icon-present</title>
    <desc>Created with Sketch.</desc>
    <g id="Page-1" stroke="none" stroke-width="1" fill="none" fill-rule="evenodd">
        <g id="group---present-study" transform="translate(-1047.000000, -304.000000)" stroke="#C9510D">
            <g id="icons/buttons/present" transform="translate(1047.000000, 304.000000)">
                <g id="icon-present">
                    <g id="icons/buttons/present">
                        <g id="Group" transform="translate(1.142857, 1.142857)">
                            <path d="M2.48444256,0.198728276 L2.48444256,4.77015685" id="Line-2" stroke-width="1.71428571" stroke-linecap="square" transform="translate(2.484443, 2.484443) rotate(-225.000000) translate(-2.484443, -2.484443) "></path>
                            <polyline id="Path-3" stroke-width="1.71428571" points="4.57142857 0 0 0 0 4.57142857"></polyline>
                        </g>
                        <g id="Group" transform="translate(12.571429, 3.428571) scale(-1, 1) translate(-12.571429, -3.428571) translate(10.285714, 1.142857)">
                            <path d="M2.48444256,0.198728276 L2.48444256,4.77015685" id="Line-2" stroke-width="1.71428571" stroke-linecap="square" transform="translate(2.484443, 2.484443) rotate(-225.000000) translate(-2.484443, -2.484443) "></path>
                            <polyline id="Path-3" stroke-width="1.71428571" points="4.57142857 0 0 0 0 4.57142857"></polyline>
                        </g>
                        <g id="Group" transform="translate(3.428571, 12.571429) scale(1, -1) translate(-3.428571, -12.571429) translate(1.142857, 10.285714)">
                            <path d="M2.48444256,0.198728276 L2.48444256,4.77015685" id="Line-2" stroke-width="1.71428571" stroke-linecap="square" transform="translate(2.484443, 2.484443) rotate(-225.000000) translate(-2.484443, -2.484443) "></path>
                            <polyline id="Path-3" stroke-width="1.71428571" points="4.57142857 0 0 0 0 4.57142857"></polyline>
                        </g>
                        <g id="Group" transform="translate(12.571429, 12.571429) scale(-1, -1) translate(-12.571429, -12.571429) translate(10.285714, 10.285714)">
                            <path d="M2.48444256,0.198728276 L2.48444256,4.77015685" id="Line-2" stroke-width="1.71428571" stroke-linecap="square" transform="translate(2.484443, 2.484443) rotate(-225.000000) translate(-2.484443, -2.484443) "></path>
                            <polyline id="Path-3" stroke-width="1.71428571" points="4.57142857 0 0 0 0 4.57142857"></polyline>
                        </g>
                    </g>
                </g>
            </g>
        </g>
    </g>
</svg>