<?xml version="1.0" encoding="utf-8"?>
<!-- Generator: Adobe Illustrator 21.0.0, SVG Export Plug-In . SVG Version: 6.00 Build 0)  -->
<svg version="1.1" id="Layer_1" xmlns="http://www.w3.org/2000/svg" xmlns:xlink="http://www.w3.org/1999/xlink" x="0px" y="0px"
	 viewBox="0 0 28.7 28.7" style="enable-background:new 0 0 28.7 28.7;" xml:space="preserve">
<style type="text/css">
	.st0{fill:#FFFFFF;}
</style>
<g>
	<path d="M23.1,20.5h-3.8v2.9H9.2v-2.9H5.5V11h3.7V4.9h10.1V11h3.8C23.1,11,23.1,20.5,23.1,20.5z"/>
	<path class="st0" d="M17.6,11h-6.7V6.6h6.6V11H17.6z"/>
	<polygon class="st0" points="19.3,15.8 19.3,18.7 21.3,18.7 21.3,12.8 7.3,12.8 7.3,18.7 9.2,18.7 9.2,15.8 	"/>
	<rect x="10.9" y="6.6" class="st0" width="6.6" height="4.3"/>
	<polygon class="st0" points="10.9,17.6 10.9,18.7 10.9,20.5 10.9,21.6 17.5,21.6 17.5,20.5 17.5,18.7 17.5,17.6 	"/>
</g>
<path d="M14.3,28.7C6.4,28.7,0,22.3,0,14.4S6.4,0,14.3,0s14.3,6.4,14.3,14.3S22.2,28.7,14.3,28.7z M14.3,1.9
	C7.4,1.9,1.8,7.5,1.8,14.4s5.6,12.5,12.5,12.5s12.5-5.6,12.5-12.5S21.1,1.9,14.3,1.9z"/>
</svg>
