<?xml version="1.0" encoding="UTF-8"?>
<svg width="128px" height="110px" viewBox="0 0 128 110" version="1.1" xmlns="http://www.w3.org/2000/svg" xmlns:xlink="http://www.w3.org/1999/xlink">
    <!-- Generator: Sketch 46.2 (44496) - http://www.bohemiancoding.com/sketch -->
    <title>Group 5</title>
    <desc>Created with Sketch.</desc>
    <defs></defs>
    <g id="Page-1" stroke="none" stroke-width="1" fill="none" fill-rule="evenodd">
        <g id="Group-5">
            <rect id="Rectangle-Copy-5" fill="#8C8C8C" x="0.441363474" y="0" width="126.740201" height="110" rx="9"></rect>
            <path d="M88.4520892,68.7758789 C88.4520892,71.1264766 87.9049755,73.4500211 86.8107318,75.746582 C85.716488,78.043143 84.1832189,79.988436 82.2108783,81.5825195 C80.0494091,83.3116948 77.5299844,84.6625928 74.6525287,85.6352539 C71.7750729,86.607915 68.3100196,87.0942383 64.257265,87.0942383 C59.9073083,87.0942383 55.9964588,86.6889689 52.524599,85.878418 C49.0527392,85.067867 45.520141,83.8655679 41.9266986,82.2714844 L41.9266986,72.2207031 L42.4940814,72.2207031 C45.5471566,74.7604294 49.0730002,76.7192314 53.0717181,78.097168 C57.070436,79.4751045 60.8259323,80.1640625 64.3383197,80.1640625 C69.3096987,80.1640625 73.1800213,79.2319429 75.9494037,77.3676758 C78.718786,75.5034086 80.1034564,73.0177564 80.1034564,69.9106445 C80.1034564,67.2358265 79.4482709,65.2635155 78.1378802,63.9936523 C76.8274896,62.7237892 74.8349151,61.7376337 72.160097,61.0351562 C70.1337197,60.494789 67.9385105,60.0489926 65.5744037,59.6977539 C63.2102968,59.3465152 60.7043811,58.9007188 58.0565814,58.3603516 C52.7069453,57.2255803 48.7420598,55.2870417 46.161806,52.5446777 C43.5815522,49.8023138 42.2914447,46.2291887 42.2914447,41.8251953 C42.2914447,36.7727612 44.4258634,32.632259 48.694765,29.4035645 C52.9636665,26.1748699 58.3807673,24.5605469 64.9462298,24.5605469 C69.188113,24.5605469 73.0786991,24.9658163 76.6181048,25.7763672 C80.1575105,26.5869181 83.2915938,27.5865826 86.0204486,28.7753906 L86.0204486,38.2587891 L85.4530658,38.2587891 C83.1565048,36.3134668 80.1372479,34.6991438 76.3952044,33.4157715 C72.653161,32.1323992 68.8233653,31.4907227 64.9057025,31.4907227 C60.6097826,31.4907227 57.1582383,32.3823153 54.5509662,34.1655273 C51.943694,35.9487394 50.6400775,38.2452659 50.6400775,41.0551758 C50.6400775,43.5678837 51.2885085,45.5401947 52.58539,46.972168 C53.8822715,48.4041413 56.165289,49.4983686 59.4345111,50.2548828 C61.1636864,50.6331399 63.6223207,51.0924452 66.8104876,51.6328125 C69.9986546,52.1731798 72.7004505,52.7270479 74.9159564,53.2944336 C79.4010049,54.4832416 82.7782497,56.2799359 85.0477923,58.6845703 C87.3173349,61.0892047 88.4520892,64.4529406 88.4520892,68.7758789 Z" id="S-Copy" fill="#FFFFFF"></path>
        </g>
    </g>
</svg>