<?xml version="1.0" encoding="UTF-8"?>
<svg width="16px" height="15px" viewBox="0 0 16 15" version="1.1" xmlns="http://www.w3.org/2000/svg" xmlns:xlink="http://www.w3.org/1999/xlink">
    <!-- Generator: Sketch 54.1 (76490) - https://sketchapp.com -->
    <title>icon-study</title>
    <desc>Created with Sketch.</desc>
    <g id="Page-1" stroke="none" stroke-width="1" fill="none" fill-rule="evenodd">
        <g id="group---present-study" transform="translate(-1155.000000, -304.000000)">
            <g id="study" transform="translate(1155.000000, 304.000000)">
                <g id="icon-study">
                    <g id="icons/study">
                        <g id="Group" transform="translate(0.000000, 1.142857)">
                            <polyline id="Rectangle" stroke="#C9510D" stroke-width="1.71428571" points="4.18094308 3.76827567 5.28529576 -2.13162821e-14 14.6269959 2.76796883 12.4315011 10.6180246 11.3601917 10.2847234"></polyline>
                            <path d="M1.52493778,3.61791936 L1.52493778,13.5249378 L10.0963664,13.5249378 L10.0963664,3.61791936 L1.52493778,3.61791936 Z" id="Rectangle" stroke="#C9510D" stroke-width="1.71428571" transform="translate(5.810652, 8.571429) rotate(-270.000000) translate(-5.810652, -8.571429) "></path>
                            <path d="M3.71428571,8 C3.24089879,8 2.85714286,7.61624407 2.85714286,7.14285714 C2.85714286,6.66947021 3.24089879,6.28571429 3.71428571,6.28571429 C4.18767264,6.28571429 4.57142857,6.66947021 4.57142857,7.14285714 C4.57142857,7.61624407 4.18767264,8 3.71428571,8 Z M1.14285714,12.5714286 L3.15983511,9.95310053 C3.30295543,9.76730972 3.58758537,9.72033597 3.79557381,9.84818171 C3.83071003,9.86977915 3.86228983,9.89566267 3.88939433,9.92507932 L4.71462619,10.8207055 C4.79484873,10.9077711 4.93889531,10.9202593 5.03636329,10.8485986 C5.05522409,10.8347317 5.07147447,10.8182537 5.08449605,10.7997919 L6.9247221,8.19072814 C7.05930661,7.9999149 7.34157477,7.9426885 7.55518574,8.0629094 C7.6230443,8.10110041 7.67846034,8.15456703 7.71586953,8.21794066 L10.2857143,12.5714286 L1.14285714,12.5714286 Z" id="Shape" fill="#C9510D"></path>
                        </g>
                    </g>
                </g>
            </g>
        </g>
    </g>
</svg>