<?xml version="1.0" encoding="UTF-8"?>
<svg width="452px" height="377px" viewBox="0 0 452 377" version="1.1" xmlns="http://www.w3.org/2000/svg" xmlns:xlink="http://www.w3.org/1999/xlink">
    <!-- Generator: Sketch 46.2 (44496) - http://www.bohemiancoding.com/sketch -->
    <title>Group 6</title>
    <desc>Created with Sketch.</desc>
    <defs>
        <polygon id="path-1" points="0 0 202.5 0 255 61 255 341 0 341"></polygon>
    </defs>
    <g id="Page-1" stroke="none" stroke-width="1" fill="none" fill-rule="evenodd">
        <g id="Group-6">
            <path d="M202,40.0981085 L202,371.098108 L447,371.098108 L447,97.9534765 L397.206446,40.0981085 L202,40.0981085 Z" id="Rectangle-2-Copy" stroke="#000000" stroke-width="10"></path>
            <g id="Rectangle-2">
                <use fill="#FFFFFF" fill-rule="evenodd" xlink:href="#path-1"></use>
                <path stroke="#000000" stroke-width="10" d="M5,5 L5,336 L250,336 L250,62.855368 L200.206446,5 L5,5 Z"></path>
            </g>
            <path d="M75.5298726,170.102142 L74.7486295,170.116615 L75.1320146,170.5 L74.7486295,170.883385 L75.5298726,170.897858 L150.487466,245.855451 L150.487466,203.697742 L230.863345,203.697742 L230.863345,170.5 L230.863345,137.302258 L150.487466,137.302258 L150.487466,95.1445487 L75.5298726,170.102142 Z" id="Combined-Shape-Copy" fill="#000000" transform="translate(152.805987, 170.500000) rotate(-180.000000) translate(-152.805987, -170.500000) "></path>
            <path d="M265.781243,210.102142 L265,210.116615 L265.383385,210.5 L265,210.883385 L265.781243,210.897858 L340.738836,285.855451 L340.738836,243.697742 L421.114715,243.697742 L421.114715,210.5 L421.114715,177.302258 L340.738836,177.302258 L340.738836,135.144549 L265.781243,210.102142 Z" id="Combined-Shape-Copy-2" fill="#000000" transform="translate(343.057358, 210.500000) rotate(-360.000000) translate(-343.057358, -210.500000) "></path>
        </g>
    </g>
</svg>