<?xml version="1.0" encoding="utf-8"?>
<!-- Generator: Adobe Illustrator 21.0.0, SVG Export Plug-In . SVG Version: 6.00 Build 0)  -->
<svg version="1.1" id="Layer_1" xmlns="http://www.w3.org/2000/svg" xmlns:xlink="http://www.w3.org/1999/xlink" x="0px" y="0px"
	 viewBox="0 0 28.7 28.7" style="enable-background:new 0 0 28.7 28.7;" xml:space="preserve">
<style type="text/css">
	.st0{fill:none;}
</style>
<g>
	<path class="st0" d="M17.6,11H11V6.6h6.6V11z"/>
	<polygon points="19.4,15.8 19.4,18.7 21.4,18.7 21.4,12.8 7.4,12.8 7.4,18.7 9.3,18.7 9.3,15.8 	"/>
	<rect x="11" y="6.6" width="6.6" height="4.3"/>
	<path d="M14.4,0C6.4,0,0,6.4,0,14.3s6.4,14.3,14.3,14.3s14.3-6.4,14.3-14.3S22.3,0,14.4,0z M23.2,20.5h-3.8v2.9H9.3v-2.9H5.6V11
		h3.7V4.9h10.1V11h3.8V20.5z"/>
	<rect x="11" y="18.7" width="6.6" height="1.8"/>
	<rect x="11" y="17.6" width="6.6" height="1.1"/>
	<rect x="11" y="20.5" width="6.6" height="1.1"/>
</g>
</svg>
