<?xml version="1.0" encoding="UTF-8"?>
<svg width="16px" height="16px" viewBox="0 0 16 16" version="1.1" xmlns="http://www.w3.org/2000/svg" xmlns:xlink="http://www.w3.org/1999/xlink">
    <!-- Generator: Sketch 53.2 (72643) - https://sketchapp.com -->
    <title>icon-detail-view</title>
    <desc>Created with Sketch.</desc>
    <g id="Working" stroke="none" stroke-width="1" fill="none" fill-rule="evenodd">
        <g id="tooltip" transform="translate(-474.000000, -622.000000)">
            <g id="icons/light/detail-view" transform="translate(474.000000, 622.000000)">
                <rect id="Rectangle" stroke="#E3E3E3" stroke-width="0.75" x="0.375" y="0.375" width="15.25" height="15.25" rx="2"></rect>
                <path d="M5.43906668,12.4 L2.4,12.4 L2.4,2.8 L13.6,2.8 L13.6,5.98969115 C12.6481443,4.93184447 11.2684191,4.26666667 9.73333333,4.26666667 C6.86145263,4.26666667 4.53333333,6.59478597 4.53333333,9.46666667 C4.53333333,10.5548769 4.86760381,11.565014 5.43906668,12.4 L5.43906668,12.4 Z M12.9132557,11.5478628 L14.8438818,13.1113232 L14.0886768,14.0438818 L12.1040227,12.4366683 C11.4541283,12.9561011 10.629999,13.2666667 9.73333333,13.2666667 C7.63465128,13.2666667 5.93333333,11.5653487 5.93333333,9.46666667 C5.93333333,7.36798462 7.63465128,5.66666667 9.73333333,5.66666667 C11.8320154,5.66666667 13.5333333,7.36798462 13.5333333,9.46666667 C13.5333333,10.2349819 13.3053143,10.9500404 12.9132557,11.5478628 L12.9132557,11.5478628 Z M10.2333333,8.98 L11.2333333,8.98 L11.2333333,9.98 L10.2333333,9.98 L10.2333333,10.98 L9.23333333,10.98 L9.23333333,9.98 L8.23333333,9.98 L8.23333333,8.98 L9.23333333,8.98 L9.23333333,7.98 L10.2333333,7.98 L10.2333333,8.98 L10.2333333,8.98 Z M7.13333333,9.46666667 C7.13333333,10.902607 8.29739298,12.0666667 9.73333333,12.0666667 C11.1692737,12.0666667 12.3333333,10.902607 12.3333333,9.46666667 C12.3333333,8.03072632 11.1692737,6.86666667 9.73333333,6.86666667 C8.29739298,6.86666667 7.13333333,8.03072632 7.13333333,9.46666667 Z" id="Shape" fill="#333333" fill-rule="nonzero"></path>
            </g>
        </g>
    </g>
</svg>