<?xml version="1.0" encoding="UTF-8"?>
<svg width="16px" height="16px" viewBox="0 0 16 16" version="1.1" xmlns="http://www.w3.org/2000/svg" xmlns:xlink="http://www.w3.org/1999/xlink">
    <!-- Generator: Sketch 53.2 (72643) - https://sketchapp.com -->
    <title>icon-panorama-hover</title>
    <desc>Created with Sketch.</desc>
    <g id="Page-1" stroke="none" stroke-width="1" fill="none" fill-rule="evenodd">
        <g id="new-icons??-copy" transform="translate(-327.000000, -419.000000)">
            <g id="icons/dark/pano" transform="translate(327.000000, 419.000000)">
                <g id="pano-3">
                    <rect id="Rectangle" fill="#333333" x="0" y="0" width="16" height="16" rx="2"></rect>
                    <path d="M13.2824456,10.8138812 L13.2527711,5.22320687 C12.9689184,5.33337975 12.6509486,5.44203513 12.3007093,5.54454103 C11.063427,5.90666129 9.67048361,6.12359086 8.15097361,6.12359086 C6.38559142,6.12359086 4.56539077,5.82822326 2.71428571,5.18497769 L2.71428571,10.7769554 C3.00016238,10.6666451 3.32036127,10.5578435 3.67298142,10.4552046 C3.9710918,10.3684321 4.67375966,10.1652278 4.98925952,10.0961185 L6.01350869,8.59720806 L6.9077405,9.243243 L8.14751846,7.75822411 L9.17750219,8.77827526 L10.4544039,6.85714286 L12.2525401,10.49095 C12.5947621,10.5867871 12.9381161,10.6943181 13.2824456,10.8138812 Z M8.15097361,5.26644801 C9.58522158,5.26644801 10.8978196,5.062031 12.0599458,4.72190697 C12.4646823,4.60345117 12.8209582,4.4769278 13.1250755,4.35101512 C13.303871,4.27698904 13.4232381,4.22092625 13.4794757,4.19155274 L14.1027223,3.86602432 L14.1461863,12.0546539 L13.5599686,11.828396 C11.6086492,11.0752605 9.69262301,10.733397 7.83956324,10.733397 C6.40046796,10.733397 5.08160996,10.9379032 3.91253269,11.2781925 C3.50532483,11.3967205 3.14666332,11.5233286 2.84033338,11.6493355 C2.66017843,11.7234411 2.53979605,11.779588 2.48297344,11.8090478 L1.85714286,12.1335116 L1.85714286,3.94667241 L2.44000675,4.17159448 C4.39143431,4.92463324 6.3041038,5.26644801 8.15097361,5.26644801 Z M4.28571429,8.57142857 C3.81232736,8.57142857 3.42857143,8.18767264 3.42857143,7.71428571 C3.42857143,7.24089879 3.81232736,6.85714286 4.28571429,6.85714286 C4.75910121,6.85714286 5.14285714,7.24089879 5.14285714,7.71428571 C5.14285714,8.18767264 4.75910121,8.57142857 4.28571429,8.57142857 Z" id="Shape" fill="#FFFFFF" fill-rule="nonzero"></path>
                </g>
            </g>
        </g>
    </g>
</svg>