<?xml version="1.0" encoding="UTF-8"?>
<svg width="16px" height="14px" viewBox="0 0 16 14" version="1.1" xmlns="http://www.w3.org/2000/svg" xmlns:xlink="http://www.w3.org/1999/xlink">
    <!-- Generator: Sketch 52.6 (67491) - http://www.bohemiancoding.com/sketch -->
    <title>icons_download-detail-view</title>
    <desc>Created with Sketch.</desc>
    <g id="Working" stroke="none" stroke-width="1" fill="none" fill-rule="evenodd">
        <g id="2-asset---download-items" transform="translate(-1037.000000, -265.000000)" fill="#333333" fill-rule="nonzero">
            <g id="download-dropdown---update" transform="translate(1024.000000, 211.000000)">
                <path d="M28.0204082,55 L24.4285714,55 L24.4285714,54 L29,54 L29,58.6666667 L28.0204082,58.6666667 L28.0204082,55 Z M28.0204082,67 L28.0204082,63.3333333 L29,63.3333333 L29,68 L24.4285714,68 L24.4285714,67 L28.0204082,67 Z M13.9795918,67 L17.5714286,67 L17.5714286,68 L13,68 L13,63.3333333 L13.9795918,63.3333333 L13.9795918,67 Z M13.9795918,55 L13.9795918,58.6666667 L13,58.6666667 L13,54 L17.5714286,54 L17.5714286,55 L13.9795918,55 Z M25,63.3333333 L25,64.5 L17,64.5 L17,63.3333333 L25,63.3333333 Z M21.5427128,60.8999158 L22.9915894,59.4208544 L23.7997114,60.2458123 L20.9712843,63.133165 L18.1428571,60.2458123 L18.9509792,59.4208544 L20.3998557,60.8999158 L20.3998557,56.3333333 L21.5427128,56.3333333 L21.5427128,60.8999158 Z" id="icons_download-detail-view"></path>
            </g>
        </g>
    </g>
</svg>