<?xml version="1.0" encoding="UTF-8"?>
<svg width="24px" height="24px" viewBox="0 0 24 24" version="1.1" xmlns="http://www.w3.org/2000/svg" xmlns:xlink="http://www.w3.org/1999/xlink">
    <!-- Generator: Sketch 55.2 (78181) - https://sketchapp.com -->
    <title>icons/actions/remove from comparison</title>
    <desc>Created with Sketch.</desc>
    <g id="icons/actions/remove-from-comparison" stroke="none" stroke-width="1" fill="none" fill-rule="evenodd">
        <path d="M13.4142136,12 L16.1142136,14.7 L14.7,16.1142136 L12,13.4142136 L9.3,16.1142136 L7.88578644,14.7 L10.5857864,12 L7.88578644,9.3 L9.3,7.88578644 L12,10.5857864 L14.7,7.88578644 L16.1142136,9.3 L13.4142136,12 L13.4142136,12 Z M12,22 C6.4771525,22 2,17.5228475 2,12 C2,6.4771525 6.4771525,2 12,2 C17.5228475,2 22,6.4771525 22,12 C22,17.5228475 17.5228475,22 12,22 Z M12,20 C16.418278,20 20,16.418278 20,12 C20,7.581722 16.418278,4 12,4 C7.581722,4 4,7.581722 4,12 C4,16.418278 7.581722,20 12,20 Z" id="icon---remove-from-comparison" fill="#333333" fill-rule="nonzero"></path>
    </g>
</svg>