<?xml version="1.0" encoding="UTF-8"?>
<svg width="14px" height="5px" viewBox="0 0 14 5" version="1.1" xmlns="http://www.w3.org/2000/svg" xmlns:xlink="http://www.w3.org/1999/xlink">
    <!-- Generator: Sketch 52.5 (67469) - http://www.bohemiancoding.com/sketch -->
    <title>icons_doc</title>
    <desc>Created with Sketch.</desc>
    <g id="Page-1" stroke="none" stroke-width="1" fill="none" fill-rule="evenodd">
        <g id="new-icons??" transform="translate(-628.000000, -357.000000)">
            <g id="icons_doc" transform="translate(628.000000, 352.000000)">
                <rect id="Rectangle-Copy-22" x="0" y="0" width="14" height="14"></rect>
                <path d="M0,5.08239947 L2.09822736,5.08239947 C2.5118473,5.08239947 2.8459599,5.1417265 3.10057519,5.26038233 C3.35519048,5.37903817 3.56563466,5.54932871 3.73191403,5.77125906 C3.89819341,5.99318942 4.01874414,6.25137185 4.09356986,6.54581411 C4.16839558,6.84025636 4.20580788,7.15227258 4.20580788,7.48187212 C4.20580788,7.99824473 4.15020905,8.39870216 4.03900972,8.68325643 C3.92781038,8.9678107 3.77348466,9.20621745 3.5760279,9.39848385 C3.37857114,9.59075025 3.16656812,9.71874281 2.94001248,9.78246539 C2.63031714,9.8703586 2.34972491,9.91430455 2.09822736,9.91430455 L0,9.91430455 L0,5.08239947 Z M1.41232837,6.17666447 L1.41232837,8.81674357 L1.75839558,8.81674357 C2.05354147,8.81674357 2.26346603,8.78213614 2.38817556,8.71292024 C2.51288509,8.64370433 2.61057276,8.52285298 2.68124149,8.35036256 C2.75191023,8.17787213 2.78724406,7.89826605 2.78724406,7.51153593 C2.78724406,6.99955798 2.70826255,6.64908906 2.55029714,6.46011866 C2.39233174,6.27114825 2.13044565,6.17666447 1.76463103,6.17666447 L1.41232837,6.17666447 Z M4.4964687,7.50164799 C4.4964687,6.71280643 4.7043148,6.09866183 5.12001323,5.65919578 C5.53571167,5.21972973 6.11456305,5 6.85658476,5 C7.61731289,5 8.20343889,5.21588446 8.61498034,5.64765985 C9.02652179,6.07943525 9.23228943,6.68424133 9.23228943,7.46209624 C9.23228943,8.02681012 9.14239599,8.48989052 8.96260642,8.85135135 C8.78281685,9.21281218 8.52300922,9.49406623 8.18317575,9.69512195 C7.84334228,9.89617767 7.41985585,9.99670402 6.91270377,9.99670402 C6.39723771,9.99670402 5.97063359,9.90991078 5.63287861,9.73632169 C5.29512363,9.5627326 5.0212864,9.28807044 4.81135869,8.91232696 C4.60143098,8.53658349 4.4964687,8.06636187 4.4964687,7.50164799 Z M5.90879707,7.50823995 C5.90879707,7.99604726 5.99453358,8.34651618 6.16600919,8.55965722 C6.33748479,8.77279825 6.57079204,8.87936717 6.86593793,8.87936717 C7.16939778,8.87936717 7.40426387,8.77499555 7.57054325,8.56624918 C7.73682262,8.3575028 7.81996106,7.98286361 7.81996106,7.44232037 C7.81996106,6.98747301 7.73318532,6.65513179 7.55963122,6.44528675 C7.38607712,6.23544171 7.15069142,6.13052076 6.85346703,6.13052076 C6.56871361,6.13052076 6.3400829,6.23708968 6.16756805,6.45023072 C5.9950532,6.66337175 5.90879707,7.01603797 5.90879707,7.50823995 Z M12.7622641,7.94001318 L14,8.33553065 C13.9168603,8.70248481 13.7859173,9.00900778 13.6071669,9.25510877 C13.4284166,9.50120976 13.2065409,9.68688138 12.9415332,9.8121292 C12.6765254,9.93737703 12.3392951,10 11.9298321,10 C11.4330725,10 11.027253,9.92364392 10.7123614,9.77092947 C10.3974699,9.61821501 10.1257111,9.34959542 9.89707697,8.96506262 C9.66844283,8.58052983 9.55412748,8.08833523 9.55412748,7.48846407 C9.55412748,6.68863586 9.75521858,6.07394194 10.1574068,5.64436388 C10.559595,5.21478581 11.1285737,5 11.86436,5 C12.4401023,5 12.8926872,5.12304865 13.2221282,5.36914964 C13.5515692,5.61525063 13.796308,5.99318576 13.9563519,6.50296638 L12.7092628,6.7963085 C12.6656145,6.64908738 12.6198883,6.54141981 12.572083,6.47330257 C12.4931003,6.3590414 12.3964519,6.27114951 12.2821348,6.20962426 C12.1678177,6.14809901 12.0399924,6.11733685 11.8986549,6.11733685 C11.5785671,6.11733685 11.3333087,6.25356928 11.1628724,6.52603823 C11.0340059,6.72819262 10.9695736,7.04570208 10.9695736,7.47857614 C10.9695736,8.01472472 11.0464766,8.38222269 11.200285,8.58108108 C11.3540935,8.77993947 11.5702534,8.87936717 11.8487714,8.87936717 C12.1189753,8.87936717 12.3231841,8.79916582 12.4614039,8.63876071 C12.5996236,8.4783556 12.6999093,8.24544209 12.7622641,7.94001318 Z" id="DOC" fill="#11529E"></path>
            </g>
        </g>
    </g>
</svg>