<?xml version="1.0" encoding="utf-8"?>
<!-- Generator: Adobe Illustrator 18.1.1, SVG Export Plug-In . SVG Version: 6.00 Build 0)  -->
<!DOCTYPE svg PUBLIC "-//W3C//DTD SVG 1.1//EN" "http://www.w3.org/Graphics/SVG/1.1/DTD/svg11.dtd">
<svg version="1.1" xmlns="http://www.w3.org/2000/svg" xmlns:xlink="http://www.w3.org/1999/xlink" x="0px" y="0px"
	 viewBox="0 0 360 360" enable-background="new 0 0 360 360" xml:space="preserve">
<g id="Delete">
	<path d="M323.4,138.5l-96-88.6c-2.3-2.2-5.7-2.7-8.6-1.4c-2.9,1.3-4.8,4.2-4.8,7.3v49.9h-31.8c-71.8,0-115.9,20.3-132.3,60.9
		c-5.3,13.5-8,30.3-8,50.3c0,16.7,6.4,39.5,19.2,68.2c0.3,0.7,0.8,1.9,1.6,3.6c0.8,1.7,1.4,3.2,2,4.5c0.6,1.3,1.3,2.4,2,3.3
		c1.2,1.7,2.6,2.6,4.2,2.6c1.5,0,2.7-0.5,3.6-1.5c0.9-1,1.3-2.3,1.3-3.8c0-0.9-0.1-2.2-0.4-4c-0.3-1.8-0.4-2.9-0.4-3.6
		c-0.5-6.8-0.8-13-0.8-18.6c0-10.2,0.9-19.3,2.7-27.4c1.8-8.1,4.2-15,7.3-20.9c3.1-5.9,7.2-11,12.1-15.3c4.9-4.3,10.3-7.8,15.9-10.5
		c5.7-2.7,12.4-4.9,20.1-6.4c7.7-1.6,15.5-2.6,23.3-3.3c7.8-0.6,16.7-0.9,26.5-0.9H214v49.9c0,3.2,1.9,6.1,4.8,7.3
		c1,0.5,2.1,0.7,3.2,0.7c2,0,3.9-0.7,5.4-2.1l96-88.6c1.6-1.5,2.6-3.6,2.6-5.9S325.1,140,323.4,138.5z"/>
</g>
<g id="Layer_3" display="none">
	
		<polygon display="inline" fill="#BEBEBE" stroke="#BEBEBE" stroke-width="16" stroke-linecap="round" stroke-linejoin="round" stroke-miterlimit="10" points="
		222,220 222,76 300,148 	"/>
	<g display="inline">
		<path fill="#BEBEBE" stroke="#BEBEBE" stroke-miterlimit="10" d="M215.8,112.8h-31.4c-66.5,0-107.4,18.8-122.5,56.4
			c-4.9,12.5-7.4,28-7.4,46.6c0,15.5,5.9,36.5,17.8,63.1c0.3,0.7,0.8,1.8,1.5,3.4c0.7,1.6,1.3,3,1.9,4.2c0.6,1.2,1.2,2.2,1.8,3.1
			c1.1,1.6,2.4,2.4,3.9,2.4c1.4,0,2.5-0.5,3.3-1.4c0.8-0.9,1.2-2.1,1.2-3.5c0-0.8-0.1-2.1-0.4-3.7c-0.2-1.6-0.4-2.7-0.4-3.3
			c-0.5-6.3-0.7-12.1-0.7-17.2c0-9.4,0.8-17.9,2.5-25.3c1.6-7.5,3.9-13.9,6.8-19.4c2.9-5.5,6.6-10.2,11.2-14.1
			c4.6-4,9.5-7.2,14.8-9.7c5.3-2.5,11.5-4.5,18.6-5.9c7.1-1.5,14.3-2.5,21.6-3c7.2-0.6,15.4-0.8,24.6-0.8h31.4V112.8z M302.8,142.3"
			/>
	</g>
</g>
<g id="Boxes" display="none">
	<rect display="inline" fill="none" stroke="#231F20" stroke-width="0.5" stroke-miterlimit="10" width="360" height="360"/>
</g>
<g id="DRAFT" display="none">
	<g display="inline">
		<defs>
			<circle id="SVGID_9_" cx="-1350" cy="-366.1" r="156"/>
		</defs>
		<clipPath id="SVGID_2_">
			<use xlink:href="#SVGID_9_"  overflow="visible"/>
		</clipPath>
		<g clip-path="url(#SVGID_2_)">
			<defs>
				<rect id="SVGID_11_" x="-9368.4" y="-10159.5" width="9984" height="34915.5"/>
			</defs>
			<clipPath id="SVGID_4_">
				<use xlink:href="#SVGID_11_"  overflow="visible"/>
			</clipPath>
		</g>
	</g>
	<g display="inline">
		<g>
			<defs>
				<circle id="SVGID_13_" cx="-1412.4" cy="-362.7" r="20.8"/>
			</defs>
			<clipPath id="SVGID_6_">
				<use xlink:href="#SVGID_13_"  overflow="visible"/>
			</clipPath>
			<g clip-path="url(#SVGID_6_)">
				<defs>
					<rect id="SVGID_15_" x="-9371.9" y="-10159.5" width="9984" height="34915.5"/>
				</defs>
				<clipPath id="SVGID_8_">
					<use xlink:href="#SVGID_15_"  overflow="visible"/>
				</clipPath>
			</g>
		</g>
		<g>
			<defs>
				<circle id="SVGID_17_" cx="-1350" cy="-362.7" r="20.8"/>
			</defs>
			<clipPath id="SVGID_10_">
				<use xlink:href="#SVGID_17_"  overflow="visible"/>
			</clipPath>
			<g clip-path="url(#SVGID_10_)">
				<defs>
					<rect id="SVGID_19_" x="-9371.9" y="-10159.5" width="9984" height="34915.5"/>
				</defs>
				<clipPath id="SVGID_12_">
					<use xlink:href="#SVGID_19_"  overflow="visible"/>
				</clipPath>
			</g>
		</g>
		<g>
			<defs>
				<circle id="SVGID_21_" cx="-1287.6" cy="-362.7" r="20.8"/>
			</defs>
			<clipPath id="SVGID_14_">
				<use xlink:href="#SVGID_21_"  overflow="visible"/>
			</clipPath>
			<g clip-path="url(#SVGID_14_)">
				<defs>
					<rect id="SVGID_23_" x="-9371.9" y="-10159.5" width="9984" height="34915.5"/>
				</defs>
				<clipPath id="SVGID_16_">
					<use xlink:href="#SVGID_23_"  overflow="visible"/>
				</clipPath>
			</g>
		</g>
	</g>
	<polyline display="inline" fill="none" points="1585,-2470.1 145,-2470.1 145,2900.9 1585,2900.9 	"/>
</g>
</svg>
