<?xml version="1.0" encoding="UTF-8"?>
<svg width="18px" height="18px" viewBox="0 0 18 18" version="1.1" xmlns="http://www.w3.org/2000/svg" xmlns:xlink="http://www.w3.org/1999/xlink">
    <!-- Generator: Sketch 52.6 (67491) - http://www.bohemiancoding.com/sketch -->
    <title>icons_detail</title>
    <desc>Created with Sketch.</desc>
    <g id="Working" stroke="none" stroke-width="1" fill="none" fill-rule="evenodd">
        <g id="3-optB" transform="translate(-739.000000, -591.000000)">
            <g id="item-3" transform="translate(626.000000, 415.000000)">
                <g id="item-copy-18">
                    <g id="icons/light/detail-view" transform="translate(114.000000, 177.000000)">
                        <g id="detail-icon-overlay-2-copy-2">
                            <path d="M0,13.7142857 L0,2.28571429 C-1.54595143e-16,1.02334914 1.02334914,2.31892715e-16 2.28571429,0 L13.7142857,0 C14.9766509,-2.31892715e-16 16,1.02334914 16,2.28571429 L16,13.7142857 C16,14.9766509 14.9766509,16 13.7142857,16 L2.28571429,16 C1.02334914,16 1.54595143e-16,14.9766509 0,13.7142857 Z" id="Rectangle-14" stroke="#E3E3E3" stroke-width="0.75" stroke-linejoin="round"></path>
                            <path d="M8.65955473,10.3956044 L7.37384045,10.3956044 L7.37384045,8.71956615 L5.57142857,8.71956615 L5.57142857,7.44484087 L7.37384045,7.44484087 L7.37384045,5.6043956 L8.65955473,5.6043956 L8.65955473,7.44484087 L10.4285714,7.44484087 L10.4285714,8.71956615 L8.65955473,8.71956615 L8.65955473,10.3956044 Z M12.728863,4.42671614 L10.1632653,4.42671614 L10.1632653,3.14285714 L14,3.14285714 L14,7.03896104 L12.728863,7.03896104 L12.728863,4.42671614 Z M12.728863,8.96103896 L14,8.96103896 L14,12.8571429 L10.1632653,12.8571429 L10.1632653,11.5732839 L12.728863,11.5732839 L12.728863,8.96103896 Z M5.83673469,11.5732839 L5.83673469,12.8571429 L2,12.8571429 L2,8.96103896 L3.27113703,8.96103896 L3.27113703,11.5732839 L5.83673469,11.5732839 Z M3.27113703,4.42671614 L3.27113703,7.03896104 L2,7.03896104 L2,3.14285714 L5.83673469,3.14285714 L5.83673469,4.42671614 L3.27113703,4.42671614 Z" id="detail-icon" fill="#333333" fill-rule="nonzero"></path>
                        </g>
                    </g>
                </g>
            </g>
        </g>
    </g>
</svg>