<?xml version="1.0" encoding="UTF-8"?>
<svg width="14px" height="5px" viewBox="0 0 14 5" version="1.1" xmlns="http://www.w3.org/2000/svg" xmlns:xlink="http://www.w3.org/1999/xlink">
    <!-- Generator: Sketch 52.5 (67469) - http://www.bohemiancoding.com/sketch -->
    <title>icons_ppt</title>
    <desc>Created with Sketch.</desc>
    <g id="Page-1" stroke="none" stroke-width="1" fill="none" fill-rule="evenodd">
        <g id="new-icons??" transform="translate(-563.000000, -357.000000)">
            <g id="icons_ppt" transform="translate(563.000000, 352.000000)">
                <rect id="Rectangle-Copy-20" x="0" y="0" width="14" height="14"></rect>
                <path d="M0,5 L2.48984412,5 C3.03212364,5 3.43827609,5.12895478 3.70831365,5.38686821 C3.97835122,5.64478164 4.11336797,6.01180678 4.11336797,6.48795465 C4.11336797,6.97732885 3.96622726,7.35978448 3.67194143,7.63533302 C3.37765559,7.91088155 2.92851821,8.04865376 2.32451582,8.04865376 L1.50448748,8.04865376 L1.50448748,9.8474256 L0,9.8474256 L0,5 Z M1.50448748,7.06660368 L1.8715163,7.06660368 C2.16029116,7.06660368 2.36309184,7.0164546 2.47992442,6.91615494 C2.596757,6.81585527 2.65517241,6.68745158 2.65517241,6.53094001 C2.65517241,6.37883722 2.60447224,6.24988244 2.50307038,6.1440718 C2.40166852,6.03826116 2.21099179,5.98535664 1.93103448,5.98535664 L1.50448748,5.98535664 L1.50448748,7.06660368 Z M4.89041096,5 L7.38025508,5 C7.9225346,5 8.32868705,5.12895478 8.59872461,5.38686821 C8.86876218,5.64478164 9.00377893,6.01180678 9.00377893,6.48795465 C9.00377893,6.97732885 8.85663822,7.35978448 8.56235239,7.63533302 C8.26806655,7.91088155 7.81892917,8.04865376 7.21492678,8.04865376 L6.39489844,8.04865376 L6.39489844,9.8474256 L4.89041096,9.8474256 L4.89041096,5 Z M6.39489844,7.06660368 L6.76192726,7.06660368 C7.05070212,7.06660368 7.2535028,7.0164546 7.37033538,6.91615494 C7.48716796,6.81585527 7.54558337,6.68745158 7.54558337,6.53094001 C7.54558337,6.37883722 7.4948832,6.24988244 7.39348134,6.1440718 C7.29207948,6.03826116 7.10140275,5.98535664 6.82144544,5.98535664 L6.39489844,5.98535664 L6.39489844,7.06660368 Z M9.44685876,5 L14,5 L14,6.19697685 L12.4723666,6.19697685 L12.4723666,9.8474256 L10.9744922,9.8474256 L10.9744922,6.19697685 L9.44685876,6.19697685 L9.44685876,5 Z" id="PPT" fill="#FC2900"></path>
            </g>
        </g>
    </g>
</svg>