<?xml version="1.0" encoding="UTF-8"?>
<svg width="16px" height="16px" viewBox="0 0 16 16" version="1.1" xmlns="http://www.w3.org/2000/svg" xmlns:xlink="http://www.w3.org/1999/xlink">
    <!-- Generator: Sketch 53.2 (72643) - https://sketchapp.com -->
    <title>icon-doc-hover</title>
    <desc>Created with Sketch.</desc>
    <g id="Page-1" stroke="none" stroke-width="1" fill="none" fill-rule="evenodd">
        <g id="new-icons??-copy" transform="translate(-219.000000, -419.000000)">
            <g id="icons/dark/doc" transform="translate(219.000000, 419.000000)">
                <g id="doc-copy">
                    <path d="M2.28571429,0 L13.7142857,0 C14.9766509,0 16,1.02334914 16,2.28571429 L16,13.7142857 C16,14.9766509 14.9766509,16 13.7142857,16 L2.28571429,16 C1.02334914,16 0,14.9766509 0,13.7142857 L0,2.28571429 C0,1.02334914 1.02334914,0 2.28571429,0 Z" id="Path-Copy-2" fill="#245399"></path>
                    <g id="icons_doc" transform="translate(2.285714, 2.285714)">
                        <rect id="Rectangle-Copy-22" x="0" y="0" width="11.4285714" height="11.4285714"></rect>
                        <path d="M0,3.78155059 L1.71283866,3.78155059 C2.05048759,3.78155059 2.32323257,3.82998082 2.53108179,3.92684272 C2.73893101,4.02370463 2.91072217,4.16271731 3.04646044,4.34388495 C3.1821987,4.52505259 3.28060746,4.73581376 3.34168968,4.97617478 C3.4027719,5.21653581 3.43331255,5.47124292 3.43331255,5.74030377 C3.43331255,6.16183243 3.38792575,6.48873646 3.29715079,6.72102565 C3.20637582,6.95331485 3.08039564,7.14793261 2.91920645,7.30488478 C2.75801726,7.46183694 2.58495357,7.56632067 2.40001018,7.6183391 C2.14719767,7.69008866 1.91814278,7.7259629 1.71283866,7.7259629 L0,7.7259629 L0,3.78155059 Z M1.15292112,4.67482814 L1.15292112,6.82999475 L1.43542497,6.82999475 C1.67636039,6.82999475 1.84772737,6.80174379 1.94953107,6.74524101 C2.05133477,6.68873823 2.1310798,6.59008407 2.18876857,6.44927556 C2.24645733,6.30846705 2.27530128,6.08021718 2.27530128,5.76451912 C2.27530128,5.34657794 2.21082657,5.06048086 2.08187522,4.90621931 C1.95292387,4.75195776 1.73913931,4.67482814 1.44051513,4.67482814 L1.15292112,4.67482814 Z M3.67058669,5.75644734 C3.67058669,5.11249504 3.84025698,4.61115252 4.17960264,4.25240472 C4.5189483,3.89365692 4.99148004,3.71428571 5.59721205,3.71428571 C6.21821461,3.71428571 6.69668481,3.89051793 7.03263701,4.24298764 C7.36858922,4.59545735 7.5365628,5.0891766 7.5365628,5.7241602 C7.5365628,6.18515112 7.4631804,6.56317594 7.3164134,6.858246 C7.16964641,7.15331606 6.95755855,7.38291121 6.68014347,7.54703833 C6.40272839,7.71116544 6.05702519,7.79322777 5.64302348,7.79322777 C5.22223486,7.79322777 4.8739866,7.72237615 4.59826825,7.58067077 C4.3225499,7.43896539 4.0990093,7.21475138 3.92763974,6.90802201 C3.75627019,6.60129264 3.67058669,6.21743826 3.67058669,5.75644734 Z M4.82350781,5.76182853 C4.82350781,6.16003858 4.8934968,6.44613566 5.03347689,6.62012834 C5.17345697,6.79412102 5.36391187,6.88111606 5.60484729,6.88111606 C5.85256962,6.88111606 6.04429704,6.79591474 6.1800353,6.62550953 C6.31577357,6.45510433 6.38364168,6.14927642 6.38364168,5.70801663 C6.38364168,5.33671266 6.31280434,5.06541371 6.17112753,4.89411163 C6.02945071,4.72280956 5.83729911,4.63715981 5.59466697,4.63715981 C5.36221519,4.63715981 5.17557788,4.72415484 5.03474943,4.89814753 C4.89392098,5.07214021 4.82350781,5.360031 4.82350781,5.76182853 Z M10.4181748,6.11429648 L11.4285714,6.43716788 C11.3607023,6.73672229 11.25381,6.98694513 11.1078914,7.18784389 C10.9619727,7.38874266 10.7808497,7.54031133 10.5645169,7.64255445 C10.348184,7.74479757 10.072894,7.79591837 9.73863849,7.79591837 C9.33312042,7.79591837 9.00183919,7.73358687 8.74478485,7.60892201 C8.48773052,7.48425715 8.26588662,7.26497585 8.07924651,6.95107153 C7.89260639,6.63716721 7.79928774,6.2353757 7.79928774,5.74568496 C7.79928774,5.09276397 7.96344374,4.59097301 8.29176066,4.24029704 C8.62007759,3.88962107 9.08455,3.71428571 9.68519181,3.71428571 C10.1551856,3.71428571 10.5246426,3.81473359 10.793574,4.01563236 C11.0625055,4.21653112 11.2622922,4.5250496 11.3929403,4.94119705 L10.3749084,5.18066 C10.3392771,5.06047949 10.3019497,4.9725876 10.2629249,4.91698169 C10.1984492,4.82370726 10.1195526,4.75195878 10.0262325,4.70173409 C9.93291244,4.6515094 9.82856522,4.62639743 9.71318769,4.62639743 C9.45189153,4.62639743 9.2516806,4.73760758 9.11254888,4.96003121 C9.00735172,5.1250552 8.95475393,5.38424659 8.95475393,5.73761317 C8.95475393,6.17528549 9.01753194,6.47528383 9.14308983,6.63761721 C9.26864773,6.79995059 9.44510482,6.88111606 9.67246642,6.88111606 C9.8930411,6.88111606 10.0597422,6.81564557 10.1725746,6.68470262 C10.285407,6.55375968 10.3672729,6.3636262 10.4181748,6.11429648 Z" id="DOC" fill="#FFFFFF"></path>
                    </g>
                </g>
            </g>
        </g>
    </g>
</svg>