<?xml version="1.0" encoding="UTF-8"?>
<svg width="22px" height="22px" viewBox="0 0 22 22" version="1.1" xmlns="http://www.w3.org/2000/svg" xmlns:xlink="http://www.w3.org/1999/xlink">
    <!-- Generator: Sketch 53.2 (72643) - https://sketchapp.com -->
    <title>icons_detail</title>
    <desc>Created with Sketch.</desc>
    <g id="Reframe-Exporting" stroke="none" stroke-width="1" fill="none" fill-rule="evenodd">
        <g id="1---export-to-gs---group" transform="translate(-467.000000, -634.000000)">
            <g id="items" transform="translate(64.000000, 466.000000)">
                <g id="item-3" transform="translate(290.000000, 0.000000)">
                    <g id="item-copy-18">
                        <g id="icons/light/detail-view" transform="translate(114.000000, 169.000000)">
                            <path d="M0,17.7142857 L0,2.28571429 C-1.54595143e-16,1.02334914 1.02334914,6.75981925e-16 2.28571429,4.4408921e-16 L17.7142857,0 C18.9766509,-2.31892715e-16 20,1.02334914 20,2.28571429 L20,17.7142857 C20,18.9766509 18.9766509,20 17.7142857,20 L2.28571429,20 C1.02334914,20 5.98684353e-16,18.9766509 4.4408921e-16,17.7142857 Z" id="Rectangle-14" stroke="#E3E3E3" stroke-width="0.75" stroke-linejoin="round"></path>
                            <path d="M13.6307419,12.3477222 L16.25,14.9669803 L14.9669803,16.25 L12.3477222,13.6307419 C10.2218924,15.1457542 7.2515389,14.9496571 5.34433249,13.0424507 C3.21855584,10.9166741 3.21855584,7.47010914 5.34433249,5.34433249 C7.47010914,3.21855584 10.9166741,3.21855584 13.0424507,5.34433249 C14.9496571,7.2515389 15.1457542,10.2218924 13.6307419,12.3477222 Z M11.9804019,11.9804019 C13.5196252,10.4411786 13.5196252,7.94560461 11.9804019,6.40638133 C10.4411786,4.86715805 7.94560461,4.86715805 6.40638133,6.40638133 C4.86715805,7.94560461 4.86715805,10.4411786 6.40638133,11.9804019 C7.94560461,13.5196252 10.4411786,13.5196252 11.9804019,11.9804019 Z M10.0247485,10.0247485 L10.0247485,11.85 L8.38775155,11.85 L8.38775155,10.0247485 L6.5625,10.0247485 L6.5625,8.38775155 L8.38775155,8.38775155 L8.38775155,6.5625 L10.0247485,6.5625 L10.0247485,8.38775155 L11.85,8.38775155 L11.85,10.0247485 L10.0247485,10.0247485 Z" id="zoomed-icon" fill="#333333" fill-rule="evenodd"></path>
                        </g>
                    </g>
                </g>
            </g>
        </g>
    </g>
</svg>