<?xml version="1.0" encoding="utf-8"?>
<!-- Generator: Adobe Illustrator 21.0.0, SVG Export Plug-In . SVG Version: 6.00 Build 0)  -->
<svg version="1.1" id="Layer_1" xmlns="http://www.w3.org/2000/svg" xmlns:xlink="http://www.w3.org/1999/xlink" x="0px" y="0px"
	 viewBox="0 0 28.7 28.7" style="enable-background:new 0 0 28.7 28.7;" xml:space="preserve">
<g>
	<polygon points="19,6.3 13.9,11.5 15.3,12.9 18,10.1 18,22.2 20,22.2 20,10.1 22.9,13 24.3,11.6 	"/>
	<polygon points="11.1,18.3 11.1,6.3 9.1,6.3 9.1,18.3 6.2,15.4 4.8,16.8 10.1,22.1 15.2,16.9 13.8,15.5 	"/>
	<path d="M14.5,0C6.6,0,0.1,6.5,0.1,14.4s6.4,14.3,14.3,14.3s14.3-6.4,14.3-14.3C28.8,6.5,22.4,0,14.5,0z M14.5,26.8
		C7.6,26.8,2,21.2,2,14.3S7.6,1.9,14.5,1.9S27,7.5,27,14.4S21.3,26.8,14.5,26.8z"/>
</g>
</svg>
