<?xml version="1.0" encoding="utf-8"?>
<!-- Generator: Adobe Illustrator 19.2.1, SVG Export Plug-In . SVG Version: 6.00 Build 0)  -->
<svg version="1.1" xmlns="http://www.w3.org/2000/svg" xmlns:xlink="http://www.w3.org/1999/xlink" x="0px" y="0px"
	 viewBox="0 0 360 360" enable-background="new 0 0 360 360" xml:space="preserve">
<g id="Delete">
	<g>
		<g>
			<polygon points="192,84 192,48 48,48 48,192 84,192 84,108 84,84 108,84 			"/>
			<polygon points="192,144 252,144 252,108 192,108 108,108 108,192 108,252 144,252 144,192 144,168 144,144 168,144 			"/>
			<polygon points="276,168 264,168 252,168 192,168 168,168 168,192 168,252 168,264 168,276 168,312 312,312 312,168 			"/>
		</g>
		<rect fill="none" width="360" height="360"/>
	</g>
</g>
<g id="Layer_3" display="none">
</g>
<g id="Boxes">
</g>
</svg>
