<?xml version="1.0" encoding="UTF-8"?>
<svg width="16px" height="16px" viewBox="0 0 16 16" version="1.1" xmlns="http://www.w3.org/2000/svg" xmlns:xlink="http://www.w3.org/1999/xlink">
    <!-- Generator: Sketch 53.2 (72643) - https://sketchapp.com -->
    <title>icon-audio-hover</title>
    <desc>Created with Sketch.</desc>
    <g id="Page-1" stroke="none" stroke-width="1" fill="none" fill-rule="evenodd">
        <g id="new-icons??-copy" transform="translate(-305.000000, -419.000000)">
            <g id="icons/dark/audio" transform="translate(305.000000, 419.000000)">
                <g id="audio" stroke-width="1" fill="#333333">
                    <rect id="Rectangle-Copy-10" x="0" y="0" width="16" height="16" rx="2"></rect>
                </g>
                <path d="M8.17882979,3.48022963 C8.34663783,3.35649759 8.59189573,3.46785642 8.57898742,3.67820088 L8.57898742,12.3217991 C8.57898742,12.5321436 8.33372952,12.6435024 8.16592148,12.5197704 L5.4293596,9.82810423 C5.39063466,9.80335782 5.33900142,9.77861141 5.27445987,9.77861141 L3.68673764,9.77861141 C3.54474623,9.77861141 3.42857143,9.66725258 3.42857143,9.53114734 L3.42857143,6.56525206 C3.42857143,6.42914682 3.54474623,6.31778799 3.68673764,6.31778799 L5.28736818,6.31778799 C5.33900142,6.31778799 5.39063466,6.30541478 5.44226791,6.26829517 L8.17882979,3.48022963 Z M11.245927,4.07445192 C11.4962457,3.8666127 11.855181,3.92488719 12.0385136,4.19875204 C12.7946672,5.32830508 13.1742691,6.64304441 13.1742691,8.12527062 C13.1742691,9.62486094 12.784897,10.8678882 12.0068158,11.8306779 C11.8003377,12.0861718 11.4374618,12.1074344 11.2065419,11.8759691 C10.9858232,11.6547293 10.9683088,11.2839884 11.1658672,11.0395316 C11.7611442,10.3029419 12.0587761,9.33930784 12.0587761,8.12527062 C12.0587761,6.89397793 11.751551,5.82604714 11.1341694,4.90379366 C10.958333,4.64112673 11.0064859,4.27325945 11.245927,4.07445192 Z M9.5719954,5.19124216 C9.83868956,5.00785302 10.1905649,5.1005415 10.3507234,5.38942375 C10.7509229,6.11127429 10.9497993,6.98161906 10.9497993,7.9931888 C10.9497993,9.00475855 10.7509229,9.87510332 10.3507234,10.5969539 C10.1905649,10.8858361 9.83868956,10.9785246 9.5719954,10.7951355 C9.31632587,10.6193273 9.23930693,10.2566742 9.39344842,9.97864502 C9.68637573,9.45028418 9.83430635,8.79071816 9.83430635,7.9931888 C9.83430635,7.19565944 9.68637573,6.53609342 9.39344842,6.00773258 C9.23930693,5.72970345 9.31632587,5.36705033 9.5719954,5.19124216 Z" id="audio-icon" fill="#F9F9F9"></path>
            </g>
        </g>
    </g>
</svg>