<?xml version="1.0" encoding="UTF-8"?>
<svg width="20px" height="20px" viewBox="0 0 20 20" version="1.1" xmlns="http://www.w3.org/2000/svg" xmlns:xlink="http://www.w3.org/1999/xlink">
    <!-- Generator: Sketch 53.2 (72643) - https://sketchapp.com -->
    <title>icon-info</title>
    <desc>Created with Sketch.</desc>
    <g id="Loading" stroke="none" stroke-width="1" fill="none" fill-rule="evenodd">
        <g id="4---export-to-gs---cancelled" transform="translate(-874.000000, -125.000000)">
            <g id="info-toast---cancelled" transform="translate(860.000000, 105.000000)">
                <g id="icon-info" transform="translate(14.000000, 20.000000)">
                    <path d="M20,10 C20,15.5208333 15.5208333,20 10,20 C4.47916667,20 0,15.5208333 0,10 C0,4.47916667 4.47916667,0 10,0 C15.5208333,0 20,4.47916667 20,10 Z" id="circle" fill="#0039C6"></path>
                    <path d="M10.9199219,5.07080078 C11.2154648,5.07080078 11.4686534,5.17498365 11.6721557,5.38088005 C11.8751914,5.58630448 11.9780273,5.83794997 11.9780273,6.12890625 C11.9780273,6.4201688 11.873896,6.6720213 11.6684665,6.87745085 C11.4630369,7.0828804 11.2111844,7.18701172 10.9199219,7.18701172 C10.6327364,7.18701172 10.3830462,7.08277213 10.1777249,6.87745085 C9.97229538,6.6720213 9.86816406,6.4201688 9.86816406,6.12890625 C9.86816406,5.83794997 9.97099996,5.58630448 10.1740357,5.38088005 C10.3774287,5.17509419 10.6284605,5.07080078 10.9199219,5.07080078 Z M11.4335838,8.15035274 L10.1326184,12.6624635 C10.0638587,12.9091898 10.0292969,13.0718335 10.0292969,13.1367188 C10.0292969,13.1496176 10.0351193,13.1628798 10.0521699,13.1808776 C10.0681601,13.1977562 10.0769446,13.2021484 10.0820312,13.2021484 C10.1208111,13.2021484 10.1645456,13.1828538 10.2184634,13.1353804 C10.396933,12.9886387 10.6183434,12.7139258 10.8785683,12.3132621 L11.046776,12.2736059 L11.2625963,12.400559 L11.3076221,12.57054 C10.6486756,13.7182414 9.93528307,14.3027344 9.16162109,14.3027344 C8.85615689,14.3027344 8.60621459,14.2145905 8.41863792,14.036758 C8.23042482,13.8583222 8.13525391,13.6296649 8.13525391,13.3588867 C8.13525391,13.1885099 8.1732649,12.9783315 8.24813598,12.7273035 L9.13042999,9.69322784 C9.21205988,9.4116047 9.25244141,9.20162077 9.25244141,9.06787109 C9.25244141,9.01193352 9.22841326,8.96261259 9.17348658,8.91346766 C9.11781338,8.8636548 9.03751175,8.83740234 8.92675781,8.83740234 C8.86545326,8.83740234 8.79120738,8.83946473 8.70418783,8.84360852 L8.57936293,8.68011424 L8.66188246,8.42620799 L8.76074324,8.34145712 L10.9326172,7.99072266 L11.3134766,7.99072266 L11.4335838,8.15035274 Z" id="i" fill="#FFFFFF" fill-rule="nonzero"></path>
                </g>
            </g>
        </g>
    </g>
</svg>