<?xml version="1.0" encoding="utf-8"?>
<!-- Generator: Adobe Illustrator 21.0.0, SVG Export Plug-In . SVG Version: 6.00 Build 0)  -->
<svg version="1.1" id="Layer_1" xmlns="http://www.w3.org/2000/svg" xmlns:xlink="http://www.w3.org/1999/xlink" x="0px" y="0px"
	 viewBox="0 0 28.7 28.7" style="enable-background:new 0 0 28.7 28.7;" xml:space="preserve">
<g>
	<path d="M14.5,0C6.6,0,0.1,6.5,0.1,14.4s6.4,14.3,14.3,14.3s14.3-6.4,14.3-14.3C28.8,6.5,22.4,0,14.5,0z M14.5,26.8
		C7.6,26.8,2,21.2,2,14.3S7.6,1.9,14.5,1.9S27,7.5,27,14.4S21.3,26.8,14.5,26.8z"/>
	<polygon points="13.8,7.2 13.8,13.5 15.6,13.5 15.6,7.2 16.8,8.3 18,7.1 14.7,3.8 11.5,7.1 12.8,8.3 	"/>
	<polygon points="18.7,11.8 21.1,11.8 21.1,19.4 8.3,19.4 8.3,11.8 10.9,11.8 10.9,9.8 6.3,9.8 6.3,21.4 23.1,21.4 23.1,9.8 
		18.7,9.8 	"/>
</g>
</svg>
