<?xml version="1.0" encoding="UTF-8"?>
<svg width="16px" height="16px" viewBox="0 0 16 16" version="1.1" xmlns="http://www.w3.org/2000/svg" xmlns:xlink="http://www.w3.org/1999/xlink">
    <!-- Generator: Sketch 53 (72520) - https://sketchapp.com -->
    <title>icon-zip</title>
    <desc>Created with Sketch.</desc>
    <g id="Working" stroke="none" stroke-width="1" fill="none" fill-rule="evenodd">
        <g id="2---image-group-page---export-options" transform="translate(-999.000000, -521.000000)" fill="#333333" fill-rule="nonzero">
            <g id="export-dropdown" transform="translate(985.000000, 336.000000)">
                <g id="download-zip-file" transform="translate(14.000000, 185.000000)">
                    <g id="heading">
                        <g id="icon/zip">
                            <path d="M10.4728543,3.49093309 L1.00007743,3.49093309 L1.00007743,14.8421919 L15.0000774,14.8421919 L15.0000774,3.49093309 L11.4728545,3.49093309 L11.4728545,5.67192903 L13.7143631,5.67192903 L13.7143631,6.67192903 L11.4728545,6.67192903 L11.4728545,7.95764331 L13.7143631,7.95764331 L13.7143631,8.95764331 L11.4728545,8.95764331 L11.4728545,10.2433576 L13.7143631,10.2433576 L13.7143631,11.2433576 L11.4728545,11.2433576 L11.4728545,13.1733474 L10.4728543,13.1733474 L10.4728543,10.1005005 L8.42864886,10.1005005 L8.42864886,9.10050045 L10.4728543,9.10050045 L10.4728543,7.81478617 L8.42864886,7.81478617 L8.42864886,6.81478617 L10.4728543,6.81478617 L10.4728543,3.49093309 Z M5.683648e-14,1.50000016 C5.683648e-14,0.671573036 0.671572875,1.60688614e-07 1.49999998,1.60688614e-07 L5.11249603,9.09494702e-13 C5.82929562,3.6096817e-06 6.51161246,0.307682957 6.98616486,0.844899561 C7.90940283,1.89005027 8.95276529,2.39906413 10.1434789,2.3990627 L15.0000774,2.400024 C15.5523622,2.400024 16.0000774,2.88844064 16.0000774,3.49093309 L16.0000774,14.9090909 C16.0000774,15.5115834 15.5523622,16 15.0000774,16 L1.00007743,16 C0.447792682,16 7.74323113e-05,15.5115834 7.74323113e-05,14.9090909 L7.74323113e-05,5.36898927 L5.683648e-14,1.50000016 Z M1.00007743,2.400024 L7.19457741,2.400024 C6.86017834,2.14896487 6.54069733,1.85108359 6.2366993,1.5069429 C5.95196609,1.18461093 5.54257343,1.00000217 5.11249353,1 L1.5,1.00000016 C1.22385763,1.00000016 1,1.22385779 1,1.49999951 L1,2.400024 L1.00007743,2.400024 Z" id="zip-icon"></path>
                        </g>
                    </g>
                </g>
            </g>
        </g>
    </g>
</svg>