<?xml version="1.0" encoding="UTF-8"?>
<svg width="14px" height="5px" viewBox="0 0 14 5" version="1.1" xmlns="http://www.w3.org/2000/svg" xmlns:xlink="http://www.w3.org/1999/xlink">
    <!-- Generator: Sketch 52.5 (67469) - http://www.bohemiancoding.com/sketch -->
    <title>icons_pdf</title>
    <desc>Created with Sketch.</desc>
    <g id="Page-1" stroke="none" stroke-width="1" fill="none" fill-rule="evenodd">
        <g id="new-icons??" transform="translate(-659.000000, -357.000000)">
            <g id="icons_pdf" transform="translate(659.000000, 352.000000)">
                <rect id="Rectangle-Copy-23" x="0" y="0" width="14" height="14"></rect>
                <path d="M0,5 L2.62208989,5 C3.19317208,5 3.62089694,5.13301368 3.9052773,5.39904502 C4.18965766,5.66507636 4.33184571,6.04365375 4.33184571,6.53478854 C4.33184571,7.03956596 4.17688976,7.43405952 3.8669732,7.71828104 C3.55705664,8.00250256 3.08406375,8.14461119 2.44798033,8.14461119 L1.58439694,8.14461119 L1.58439694,10 L0,10 L0,5 Z M1.58439694,7.13165075 L1.97092015,7.13165075 C2.27503303,7.13165075 2.48860528,7.07992321 2.61164331,6.97646658 C2.73468135,6.87300994 2.79619944,6.7405647 2.79619944,6.57912688 C2.79619944,6.4222366 2.74280638,6.28922292 2.63601865,6.18008186 C2.52923092,6.07094079 2.32842658,6.01637108 2.03359959,6.01637108 L1.58439694,6.01637108 L1.58439694,7.13165075 Z M4.87238125,5 L7.21589585,5 C7.67786884,5 8.05103992,5.06139093 8.33542028,5.18417462 C8.61980064,5.30695832 8.85484619,5.48317302 9.04056398,5.71282401 C9.22628176,5.942475 9.36092514,6.20963922 9.44449814,6.51432469 C9.52807115,6.81901016 9.56985702,7.14188097 9.56985702,7.48294679 C9.56985702,8.01728325 9.50775857,8.43167202 9.3835598,8.72612551 C9.25936103,9.02057901 9.08699429,9.26727959 8.86645442,9.46623465 C8.64591455,9.66518972 8.40912792,9.79763496 8.15608744,9.86357435 C7.81018806,9.95452524 7.496794,10 7.21589585,10 L4.87238125,10 L4.87238125,5 Z M6.44981381,6.13233288 L6.44981381,8.86425648 L6.83633702,8.86425648 C7.16598609,8.86425648 7.40045128,8.82844511 7.53973962,8.75682128 C7.67902796,8.68519746 7.78813552,8.56014187 7.86706558,8.38165075 C7.94599564,8.20315964 7.98546008,7.91382647 7.98546008,7.51364256 C7.98546008,6.98385365 7.89724545,6.62119243 7.72081355,6.42564802 C7.54438166,6.23010362 7.25188053,6.13233288 6.8433014,6.13233288 L6.44981381,6.13233288 Z M10.099946,5 L14,5 L14,6.07435198 L11.6843429,6.07435198 L11.6843429,6.94747613 L13.6622275,6.94747613 L13.6622275,7.95702592 L11.6843429,7.95702592 L11.6843429,10 L10.099946,10 L10.099946,5 Z" id="PDF" fill="#E62133"></path>
            </g>
        </g>
    </g>
</svg>