<?xml version="1.0" encoding="UTF-8"?>
<svg width="24px" height="24px" viewBox="0 0 24 24" version="1.1" xmlns="http://www.w3.org/2000/svg" xmlns:xlink="http://www.w3.org/1999/xlink">
    <!-- Generator: Sketch 55.2 (78181) - https://sketchapp.com -->
    <title>icon-zoom-out</title>
    <desc>Created with Sketch.</desc>
    <defs>
        <path d="M16.6176858,18.0318994 C15.078015,19.2635271 13.1250137,20 11,20 C6.02943725,20 2,15.9705627 2,11 C2,6.02943725 6.02943725,2 11,2 C15.9705627,2 20,6.02943725 20,11 C20,13.1250137 19.2635271,15.078015 18.0318994,16.6176858 L22.4142136,21 L21,22.4142136 L16.6176858,18.0318994 Z M16.2040997,15.6816867 C17.3205406,14.4414726 18,12.8000844 18,11 C18,7.13400675 14.8659932,4 11,4 C7.13400675,4 4,7.13400675 4,11 C4,14.8659932 7.13400675,18 11,18 C12.8000844,18 14.4414726,17.3205406 15.6816867,16.2040997 L16.2040997,15.6816867 Z M8,12 L8,10 L14,10 L14,12 L8,12 Z" id="path-1"></path>
    </defs>
    <g id="icons/actions/zoom-out" stroke="none" stroke-width="1" fill="none" fill-rule="evenodd">
        <mask id="mask-2" fill="white">
            <use xlink:href="#path-1"></use>
        </mask>
        <use id="icon---zoom-out" fill="#333333" fill-rule="nonzero" xlink:href="#path-1"></use>
    </g>
</svg>