<?xml version="1.0" encoding="utf-8"?>
<!-- Generator: Adobe Illustrator 18.1.1, SVG Export Plug-In . SVG Version: 6.00 Build 0)  -->
<!DOCTYPE svg PUBLIC "-//W3C//DTD SVG 1.1//EN" "http://www.w3.org/Graphics/SVG/1.1/DTD/svg11.dtd">
<svg version="1.1" xmlns="http://www.w3.org/2000/svg" xmlns:xlink="http://www.w3.org/1999/xlink" x="0px" y="0px"
	 viewBox="0 0 360 360" enable-background="new 0 0 360 360" xml:space="preserve">
<g id="Delete">
	<g>
		<path d="M327.7,292.8l-63.2-63.2c13.1-19.5,20.7-43,20.7-68.3c0-67.9-55.1-123-123-123s-123,55.1-123,123s55.1,123,123,123
			c25.3,0,48.8-7.6,68.3-20.7l63.2,63.2L327.7,292.8z M162.2,242.2c-44.7,0-81-36.3-81-81c0-44.7,36.3-81,81-81s81,36.3,81,81
			C243.2,205.9,206.9,242.2,162.2,242.2z"/>
		<rect x="113" y="143.2" width="98.4" height="36"/>
	</g>
</g>
<g id="Layer_3" display="none">
</g>
<g id="Boxes">
</g>
</svg>
