<?xml version="1.0" encoding="UTF-8"?>
<svg width="32px" height="30px" viewBox="0 0 32 30" version="1.1" xmlns="http://www.w3.org/2000/svg" xmlns:xlink="http://www.w3.org/1999/xlink">
    <!-- Generator: Sketch 53.2 (72643) - https://sketchapp.com -->
    <title>icon/ppt</title>
    <desc>Created with Sketch.</desc>
    <g id="Loading" stroke="none" stroke-width="1" fill="none" fill-rule="evenodd">
        <g id="1---export-to-PPT---loading" transform="translate(-414.000000, -386.000000)" fill="#C9510D">
            <g id="loading---ppt" transform="translate(390.000000, 361.000000)">
                <g id="progress-bar" transform="translate(24.000000, 24.000000)">
                    <g id="icon/ppt">
                        <path d="M31.2871173,26.1162791 L31.2871173,5.17602539 L18.4871173,5.17602539 L18.4888889,10.2577994 C19.2930301,9.34501453 20.4888778,8.76530523 21.8253927,8.76530523 L21.8253927,13.0100465 L26.2099906,13.0100465 C26.2099906,15.3542674 24.2470287,17.2547878 21.8253927,17.2547878 C20.4888778,17.2547878 19.2930301,16.6750785 18.4888889,15.7622936 L18.4888889,19.0987093 L28.4689913,19.0987093 L28.4689913,20.2992907 L18.4888889,20.2992907 L18.4888889,22.3287878 L28.4689913,22.3287878 L28.4689913,23.5293692 L18.4888889,23.5293692 L18.4888889,26.1162791 L31.2871173,26.1162791 Z M30.9493844,4.25882014 C31.5287989,4.25882014 32,4.72345324 32,5.29479137 L32,26.0142158 C32,26.585554 31.5287989,27.0501871 30.9493844,27.0501871 L18.2982216,27.0501871 L18.2982216,31 L0,27.8694676 L0,4.13053237 L18.2982216,1 L18.2982216,4.25882014 L30.9493844,4.25882014 Z M22.4,7.97674419 C24.7565019,7.97674419 26.6666667,9.85098482 26.6666667,12.1627907 L22.4,12.1627907 L22.4,7.97674419 Z M7.82222222,15.9529547 L7.82222222,12.93467 C8.47921881,12.8307552 9.13321784,12.7493846 9.63945434,13.3200354 C10.0309016,13.7614091 10.0592903,14.8109486 9.72179933,15.3852981 C9.27533787,16.1465181 8.55733194,16.0093153 7.82222222,15.9529547 Z M7.83088416,21.2325581 L7.83088416,17.8876928 C8.50077772,17.8318269 9.12902694,17.8584627 9.71614384,17.7136955 C10.8946445,17.4231234 11.6423652,16.5967226 11.9125413,15.4221541 C12.2156575,14.1033373 12.2154868,12.7810613 11.2010034,11.7196084 C10.9359475,11.4421812 10.5189921,11.1716724 10.159895,11.1543764 C8.79382415,11.0886518 7.4226331,11.1279136 6.04444444,11.1279136 L6.04444444,21.2325581 L7.83088416,21.2325581 Z" id="icon-ppt"></path>
                    </g>
                </g>
            </g>
        </g>
    </g>
</svg>