<?xml version="1.0" encoding="UTF-8"?>
<svg width="16px" height="16px" viewBox="0 0 16 16" version="1.1" xmlns="http://www.w3.org/2000/svg" xmlns:xlink="http://www.w3.org/1999/xlink">
    <!-- Generator: Sketch 53.2 (72643) - https://sketchapp.com -->
    <title>icon-xls-hover</title>
    <desc>Created with Sketch.</desc>
    <g id="Page-1" stroke="none" stroke-width="1" fill="none" fill-rule="evenodd">
        <g id="new-icons??-copy" transform="translate(-197.000000, -419.000000)">
            <g id="icons/dark/xls" transform="translate(197.000000, 419.000000)">
                <g id="Group-2">
                    <rect id="Rectangle" fill="#186F40" x="0" y="0" width="16" height="16" rx="2"></rect>
                    <g id="icons_xls" transform="translate(2.285714, 2.285714)">
                        <rect id="Rectangle-Copy-21" x="0" y="0" width="11.4285714" height="11.4285714"></rect>
                        <path d="M0.120659694,3.78156804 L1.42955507,3.78156804 L2.11154464,4.99534112 L2.77254992,3.78156804 L4.06833011,3.78156804 L2.87222532,5.69238598 L4.18112069,7.72700339 L2.84599495,7.72700339 L2.08793731,6.45940445 L1.32725663,7.72700339 L0,7.72700339 L1.32725663,5.67085564 L0.120659694,3.78156804 Z M4.56408407,3.78156804 L5.75231975,3.78156804 L5.75231975,6.75544666 L7.60680678,6.75544666 L7.60680678,7.72700339 L4.56408407,7.72700339 L4.56408407,3.78156804 Z M7.93993246,6.42172635 L9.07046133,6.34906144 C9.09494313,6.53745288 9.14478033,6.68098707 9.21997443,6.7796683 C9.34238342,6.93935248 9.5172508,7.01919337 9.74458179,7.01919337 C9.91420569,7.01919337 10.044919,6.97837583 10.1367258,6.89673954 C10.2285325,6.81510325 10.2744352,6.7204604 10.2744352,6.61280814 C10.2744352,6.5105385 10.2307184,6.41903546 10.1432834,6.33829627 C10.0558484,6.25755708 9.85300224,6.18130454 9.53473884,6.10953637 C9.01362626,5.98932469 8.64203309,5.82964291 8.4199482,5.63048624 C8.1961146,5.43132957 8.08419948,5.17745348 8.08419948,4.86885036 C8.08419948,4.66610528 8.14146855,4.47457685 8.25600839,4.29425933 C8.37054824,4.1139418 8.5427926,3.9722018 8.77274665,3.86903505 C9.00270069,3.76586831 9.31789913,3.71428571 9.71835142,3.71428571 C10.2097361,3.71428571 10.5843895,3.80803148 10.8423227,3.99552582 C11.1002559,4.18302016 11.2537021,4.48130214 11.3026657,4.8903807 L10.1826289,4.95766302 C10.152901,4.78003681 10.090386,4.65085604 9.99508181,4.57011685 C9.89977766,4.48937766 9.76818996,4.44900867 9.60031476,4.44900867 C9.46216747,4.44900867 9.35812138,4.47906114 9.28817338,4.53916698 C9.21822538,4.59927282 9.18325191,4.67238555 9.18325191,4.75850735 C9.18325191,4.8213045 9.21210503,4.87782108 9.26981212,4.9280588 C9.32577052,4.98009072 9.45866973,5.02853351 9.66851372,5.07338862 C10.1878776,5.18821769 10.5599079,5.30439067 10.7846159,5.42191104 C11.0093238,5.53943142 11.1728248,5.68520833 11.2751238,5.85924614 C11.3774227,6.03328395 11.4285714,6.22795218 11.4285714,6.44325669 C11.4285714,6.69623949 11.3603732,6.92948254 11.2239746,7.14299284 C11.087576,7.35650314 10.8969705,7.51842764 10.6521525,7.6287712 C10.4073345,7.73911476 10.0986936,7.79428571 9.72622053,7.79428571 C9.07220675,7.79428571 8.61930025,7.66510495 8.36748746,7.40673954 C8.11567466,7.14837413 7.97315776,6.82003968 7.93993246,6.42172635 Z" id="XLS" fill="#FFFFFF"></path>
                    </g>
                </g>
            </g>
        </g>
    </g>
</svg>