<?xml version="1.0" encoding="UTF-8"?>
<svg width="14px" height="14px" viewBox="0 0 14 14" version="1.1" xmlns="http://www.w3.org/2000/svg" xmlns:xlink="http://www.w3.org/1999/xlink">
    <!-- Generator: Sketch 53.2 (72643) - https://sketchapp.com -->
    <title>icon-present-mode</title>
    <desc>Created with Sketch.</desc>
    <g id="Page-1" stroke="none" stroke-width="1" fill="none" fill-rule="evenodd">
        <g id="image-group" transform="translate(-1125.000000, -306.000000)" fill="#FFFFFF">
            <g id="group-+-actions" transform="translate(0.000000, 285.000000)">
                <g id="present-btn" transform="translate(1110.000000, 8.000000)">
                    <path d="M19.9,14.4 L17.38,14.4 L19.9,16.92 L18.92,17.9 L16.4,15.38 L16.4,17.9 L15,17.9 L15,13 L19.9,13 L19.9,14.4 Z M18.92,22.1 L19.9,23.08 L17.38,25.6 L19.9,25.6 L19.9,27 L15,27 L15,22.1 L16.4,22.1 L16.4,24.62 L18.92,22.1 Z M27.6,24.62 L27.6,22.1 L29,22.1 L29,27 L24.1,27 L24.1,25.6 L26.62,25.6 L24.1,23.08 L25.08,22.1 L27.6,24.62 Z M24.1,13 L29,13 L29,17.9 L27.6,17.9 L27.6,15.38 L25.08,17.9 L24.1,16.92 L26.62,14.4 L24.1,14.4 L24.1,13 Z" id="icon-present-mode"></path>
                </g>
            </g>
        </g>
    </g>
</svg>