<?xml version="1.0" encoding="utf-8"?>
<!-- Generator: Adobe Illustrator 18.1.1, SVG Export Plug-In . SVG Version: 6.00 Build 0)  -->
<!DOCTYPE svg PUBLIC "-//W3C//DTD SVG 1.1//EN" "http://www.w3.org/Graphics/SVG/1.1/DTD/svg11.dtd">
<svg version="1.1" xmlns="http://www.w3.org/2000/svg" xmlns:xlink="http://www.w3.org/1999/xlink" x="0px" y="0px"
	 viewBox="0 0 360 360" enable-background="new 0 0 360 360" xml:space="preserve">
<g id="Share" fill="#ffffff">
	<path d="M323.4,138.5l-96-88.6c-2.3-2.2-5.7-2.7-8.6-1.4c-2.9,1.3-4.8,4.2-4.8,7.3v49.9h-31.8c-71.8,0-115.9,20.3-132.3,60.9
		c-5.3,13.5-8,30.3-8,50.3c0,16.7,6.4,39.5,19.2,68.2c0.3,0.7,0.8,1.9,1.6,3.6c0.8,1.7,1.4,3.2,2,4.5c0.6,1.3,1.3,2.4,2,3.3
		c1.2,1.7,2.6,2.6,4.2,2.6c1.5,0,2.7-0.5,3.6-1.5c0.9-1,1.3-2.3,1.3-3.8c0-0.9-0.1-2.2-0.4-4c-0.3-1.8-0.4-2.9-0.4-3.6
		c-0.5-6.8-0.8-13-0.8-18.6c0-10.2,0.9-19.3,2.7-27.4c1.8-8.1,4.2-15,7.3-20.9c3.1-5.9,7.2-11,12.1-15.3c4.9-4.3,10.3-7.8,15.9-10.5
		c5.7-2.7,12.4-4.9,20.1-6.4c7.7-1.6,15.5-2.6,23.3-3.3c7.8-0.6,16.7-0.9,26.5-0.9H214v49.9c0,3.2,1.9,6.1,4.8,7.3
		c1,0.5,2.1,0.7,3.2,0.7c2,0,3.9-0.7,5.4-2.1l96-88.6c1.6-1.5,2.6-3.6,2.6-5.9S325.1,140,323.4,138.5z"/>
</g>
</svg>
