<?xml version="1.0" encoding="UTF-8"?>
<svg width="26px" height="26px" viewBox="0 0 26 26" version="1.1" xmlns="http://www.w3.org/2000/svg" xmlns:xlink="http://www.w3.org/1999/xlink">
    <!-- Generator: Sketch 54.1 (76490) - https://sketchapp.com -->
    <title>icon-present-dark</title>
    <desc>Created with Sketch.</desc>
    <defs>
        <filter x="-6.4%" y="-25.0%" width="112.8%" height="150.0%" filterUnits="objectBoundingBox" id="filter-1">
            <feOffset dx="0" dy="0" in="SourceAlpha" result="shadowOffsetOuter1"></feOffset>
            <feGaussianBlur stdDeviation="2" in="shadowOffsetOuter1" result="shadowBlurOuter1"></feGaussianBlur>
            <feColorMatrix values="0 0 0 0 0   0 0 0 0 0   0 0 0 0 0  0 0 0 0.2 0" type="matrix" in="shadowBlurOuter1" result="shadowMatrixOuter1"></feColorMatrix>
            <feMerge>
                <feMergeNode in="shadowMatrixOuter1"></feMergeNode>
                <feMergeNode in="SourceGraphic"></feMergeNode>
            </feMerge>
        </filter>
    </defs>
    <g id="Page-1" stroke="none" stroke-width="1" fill="none" fill-rule="evenodd">
        <g id="hovers-on-image-controls" transform="translate(-323.000000, -428.000000)" stroke="#333333">
            <g id="controls---zoom-in" filter="url(#filter-1)" transform="translate(227.000000, 425.000000)">
                <g id="icon-present-dark" transform="translate(100.000000, 7.000000)">
                    <g id="icons/buttons/present-dark">
                        <g id="Group" transform="translate(1.285714, 1.285714)">
                            <path d="M2.79499788,0.223569311 L2.79499788,5.36642645" id="Line-2" stroke-width="1.5" stroke-linecap="square" transform="translate(2.794998, 2.794998) rotate(-225.000000) translate(-2.794998, -2.794998) "></path>
                            <polyline id="Path-3" stroke-width="1.5" points="5.14285714 0 0 0 0 5.14285714"></polyline>
                        </g>
                        <g id="Group" transform="translate(14.142857, 3.857143) scale(-1, 1) translate(-14.142857, -3.857143) translate(11.571429, 1.285714)">
                            <path d="M2.79499788,0.223569311 L2.79499788,5.36642645" id="Line-2" stroke-width="1.5" stroke-linecap="square" transform="translate(2.794998, 2.794998) rotate(-225.000000) translate(-2.794998, -2.794998) "></path>
                            <polyline id="Path-3" stroke-width="1.5" points="5.14285714 0 0 0 0 5.14285714"></polyline>
                        </g>
                        <g id="Group" transform="translate(3.857143, 14.142857) scale(1, -1) translate(-3.857143, -14.142857) translate(1.285714, 11.571429)">
                            <path d="M2.79499788,0.223569311 L2.79499788,5.36642645" id="Line-2" stroke-width="1.5" stroke-linecap="square" transform="translate(2.794998, 2.794998) rotate(-225.000000) translate(-2.794998, -2.794998) "></path>
                            <polyline id="Path-3" stroke-width="1.5" points="5.14285714 0 0 0 0 5.14285714"></polyline>
                        </g>
                        <g id="Group" transform="translate(14.142857, 14.142857) scale(-1, -1) translate(-14.142857, -14.142857) translate(11.571429, 11.571429)">
                            <path d="M2.79499788,0.223569311 L2.79499788,5.36642645" id="Line-2" stroke-width="1.5" stroke-linecap="square" transform="translate(2.794998, 2.794998) rotate(-225.000000) translate(-2.794998, -2.794998) "></path>
                            <polyline id="Path-3" stroke-width="1.5" points="5.14285714 0 0 0 0 5.14285714"></polyline>
                        </g>
                    </g>
                </g>
            </g>
        </g>
    </g>
</svg>