<?xml version="1.0" encoding="UTF-8"?>
<svg width="20px" height="20px" viewBox="0 0 20 20" version="1.1" xmlns="http://www.w3.org/2000/svg" xmlns:xlink="http://www.w3.org/1999/xlink">
    <!-- Generator: Sketch 53.2 (72643) - https://sketchapp.com -->
    <title>icons_detail-hover</title>
    <desc>Created with Sketch.</desc>
    <g id="Reframe-Exporting" stroke="none" stroke-width="1" fill="none" fill-rule="evenodd">
        <g id="1---export-to-gs---group" transform="translate(-321.000000, -635.000000)">
            <g id="items" transform="translate(64.000000, 466.000000)">
                <g id="item-copy-15" transform="translate(144.000000, 1.000000)">
                    <g id="icons/dark/detail-view" transform="translate(113.000000, 168.000000)">
                        <g id="detail-icon-overlay-2" stroke-width="1" fill="#333333">
                            <path d="M0,17.7142857 L0,2.28571429 C-1.54595143e-16,1.02334914 1.02334914,6.75981925e-16 2.28571429,4.4408921e-16 L17.7142857,0 C18.9766509,-2.31892715e-16 20,1.02334914 20,2.28571429 L20,17.7142857 C20,18.9766509 18.9766509,20 17.7142857,20 L2.28571429,20 C1.02334914,20 5.98684353e-16,18.9766509 4.4408921e-16,17.7142857 Z" id="Rectangle-14"></path>
                        </g>
                        <path d="M13.6307419,12.3477222 L16.25,14.9669803 L14.9669803,16.25 L12.3477222,13.6307419 C10.2218924,15.1457542 7.2515389,14.9496571 5.34433249,13.0424507 C3.21855584,10.9166741 3.21855584,7.47010914 5.34433249,5.34433249 C7.47010914,3.21855584 10.9166741,3.21855584 13.0424507,5.34433249 C14.9496571,7.2515389 15.1457542,10.2218924 13.6307419,12.3477222 Z M10.0872485,9.96224845 L11.9125,9.96224845 L11.9125,8.32525155 L10.0872485,8.32525155 L10.0872485,6.5 L8.45025155,6.5 L8.45025155,8.32525155 L6.625,8.32525155 L6.625,9.96224845 L8.45025155,9.96224845 L8.45025155,11.7875 L10.0872485,11.7875 L10.0872485,9.96224845 Z" id="Shape" fill="#FFFFFF"></path>
                    </g>
                </g>
            </g>
        </g>
    </g>
</svg>