<?xml version="1.0" encoding="UTF-8"?>
<svg width="16px" height="16px" viewBox="0 0 16 16" version="1.1" xmlns="http://www.w3.org/2000/svg" xmlns:xlink="http://www.w3.org/1999/xlink">
    <!-- Generator: Sketch 53.2 (72643) - https://sketchapp.com -->
    <title>icon-ppt</title>
    <desc>Created with Sketch.</desc>
    <g id="Page-1" stroke="none" stroke-width="1" fill="none" fill-rule="evenodd">
        <g id="new-icons??-copy" transform="translate(-175.000000, -394.000000)">
            <g id="icons/light/ppt" transform="translate(175.000000, 394.000000)">
                <g id="icons_ppt">
                    <path d="M2.28571429,0.375 C1.23045592,0.375 0.375,1.23045592 0.375,2.28571429 L0.375,13.7142857 C0.375,14.7695441 1.23045592,15.625 2.28571429,15.625 L13.7142857,15.625 C14.7695441,15.625 15.625,14.7695441 15.625,13.7142857 L15.625,2.28571429 C15.625,1.23045592 14.7695441,0.375 13.7142857,0.375 L2.28571429,0.375 Z" id="Path" stroke="#E3E3E3" stroke-width="0.75"></path>
                    <g id="icons_ppt-copy" transform="translate(2.285714, 2.285714)">
                        <rect id="Rectangle-Copy-20" x="0" y="0" width="11.4285714" height="11.4285714"></rect>
                        <path d="M0,3.71428571 L2.03252581,3.71428571 C2.47520297,3.71428571 2.80675599,3.82282487 3.02719482,4.03990645 C3.24763365,4.25698803 3.35785141,4.56590718 3.35785141,4.96667316 C3.35785141,5.37857154 3.23773654,5.70047828 2.99750321,5.93240304 C2.75726987,6.1643278 2.39062711,6.28028844 1.89756394,6.28028844 L1.22815305,6.28028844 L1.22815305,7.79428571 L0,7.79428571 L0,3.71428571 Z M1.22815305,5.45371273 L1.52776841,5.45371273 C1.76350299,5.45371273 1.92905457,5.41150305 2.0244281,5.32708244 C2.11980163,5.24266183 2.16748768,5.13458651 2.16748768,5.00285324 C2.16748768,4.87483078 2.12609979,4.76629162 2.04332276,4.67723251 C1.96054573,4.5881734 1.80489126,4.54364451 1.57635468,4.54364451 L1.22815305,4.54364451 L1.22815305,5.45371273 Z M3.99217221,3.71428571 L6.02469802,3.71428571 C6.46737518,3.71428571 6.7989282,3.82282487 7.01936703,4.03990645 C7.23980586,4.25698803 7.35002362,4.56590718 7.35002362,4.96667316 C7.35002362,5.37857154 7.22990875,5.70047828 6.98967542,5.93240304 C6.74944208,6.1643278 6.38279933,6.28028844 5.88973615,6.28028844 L5.22032526,6.28028844 L5.22032526,7.79428571 L3.99217221,7.79428571 L3.99217221,3.71428571 Z M5.22032526,5.45371273 L5.51994062,5.45371273 C5.7556752,5.45371273 5.92122678,5.41150305 6.01660031,5.32708244 C6.11197384,5.24266183 6.1596599,5.13458651 6.1596599,5.00285324 C6.1596599,4.87483078 6.118272,4.76629162 6.03549497,4.67723251 C5.95271794,4.5881734 5.79706347,4.54364451 5.56852689,4.54364451 L5.22032526,4.54364451 L5.22032526,5.45371273 Z M7.71172144,3.71428571 L11.4285714,3.71428571 L11.4285714,4.72176184 L10.1815237,4.72176184 L10.1815237,7.79428571 L8.95876915,7.79428571 L8.95876915,4.72176184 L7.71172144,4.72176184 L7.71172144,3.71428571 Z" id="PPT" fill="#D74E2A"></path>
                    </g>
                </g>
            </g>
        </g>
    </g>
</svg>