<?xml version="1.0" encoding="UTF-8"?>
<svg width="16px" height="16px" viewBox="0 0 16 16" version="1.1" xmlns="http://www.w3.org/2000/svg" xmlns:xlink="http://www.w3.org/1999/xlink">
    <!-- Generator: Sketch 53.2 (72643) - https://sketchapp.com -->
    <title>icon-pdf-hover</title>
    <desc>Created with Sketch.</desc>
    <g id="Page-1" stroke="none" stroke-width="1" fill="none" fill-rule="evenodd">
        <g id="new-icons??-copy" transform="translate(-241.000000, -419.000000)">
            <g id="icons/dark/pdf" transform="translate(241.000000, 419.000000)">
                <g id="doc-copy-3">
                    <path d="M2.28571429,0 L13.7142857,0 C14.9766509,0 16,1.02334914 16,2.28571429 L16,13.7142857 C16,14.9766509 14.9766509,16 13.7142857,16 L2.28571429,16 C1.02334914,16 0,14.9766509 0,13.7142857 L0,2.28571429 C0,1.02334914 1.02334914,0 2.28571429,0 Z" id="Path-Copy-2" fill="#D4393C"></path>
                    <g id="icons_pdf-copy" transform="translate(2.285714, 2.285714)">
                        <rect id="Rectangle-Copy-23" x="0" y="0" width="11.4285714" height="11.4285714"></rect>
                        <path d="M0,3.71428571 L2.14048154,3.71428571 C2.60667109,3.71428571 2.95583424,3.82286831 3.18798147,4.04003675 C3.4201287,4.2572052 3.53620058,4.56624796 3.53620058,4.96717432 C3.53620058,5.37923752 3.40970592,5.70127307 3.15671282,5.93329064 C2.90371971,6.16530821 2.51760306,6.28131525 1.99835129,6.28131525 L1.29338526,6.28131525 L1.29338526,7.79591837 L0,7.79591837 L0,3.71428571 Z M1.29338526,5.45440878 L1.60891441,5.45440878 C1.85716982,5.45440878 2.03151452,5.41218221 2.13195373,5.32772782 C2.23239294,5.24327342 2.28261179,5.13515486 2.28261179,5.00336888 C2.28261179,4.87529518 2.23902562,4.76671259 2.15185196,4.67761784 C2.06467831,4.58852309 1.90075639,4.54397639 1.6600813,4.54397639 L1.29338526,4.54397639 L1.29338526,5.45440878 Z M3.97745408,3.71428571 L5.89052722,3.71428571 C6.26764803,3.71428571 6.57227749,3.76440076 6.80442472,3.86463235 C7.03657195,3.96486394 7.22844587,4.10871267 7.38005223,4.29618287 C7.53165858,4.48365306 7.64157154,4.7017463 7.7097944,4.95046914 C7.77801726,5.19919197 7.81212818,5.46275997 7.81212818,5.74118106 C7.81212818,6.17737408 7.76143557,6.51565063 7.66004881,6.75602083 C7.55866206,6.99639103 7.41795453,7.19777925 7.23792198,7.36019155 C7.05788943,7.52260385 6.86459422,7.63072242 6.65803056,7.68455049 C6.37566373,7.75879611 6.11983184,7.79591837 5.89052722,7.79591837 L3.97745408,7.79591837 L3.97745408,3.71428571 Z M5.26515413,4.63863908 L5.26515413,6.8687808 L5.58068328,6.8687808 C5.84978456,6.8687808 6.04118472,6.83954703 6.15488948,6.7810786 C6.26859425,6.72261017 6.35766165,6.62052397 6.42209435,6.47481694 C6.48652705,6.32910991 6.51874292,6.09291956 6.51874292,5.76623883 C6.51874292,5.33375808 6.44673098,5.0377081 6.30270494,4.87808002 C6.1586789,4.71845193 5.91990247,4.63863908 5.58636849,4.63863908 L5.26515413,4.63863908 Z M8.24485386,3.71428571 L11.4285714,3.71428571 L11.4285714,4.59130774 L9.53823912,4.59130774 L9.53823912,5.30406214 L11.1528387,5.30406214 L11.1528387,6.12818443 L9.53823912,6.12818443 L9.53823912,7.79591837 L8.24485386,7.79591837 L8.24485386,3.71428571 Z" id="PDF" fill="#FFFFFF"></path>
                    </g>
                </g>
            </g>
        </g>
    </g>
</svg>