<?xml version="1.0" encoding="UTF-8"?>
<svg width="25px" height="32px" viewBox="0 0 25 32" version="1.1" xmlns="http://www.w3.org/2000/svg" xmlns:xlink="http://www.w3.org/1999/xlink">
    <!-- Generator: Sketch 53.2 (72643) - https://sketchapp.com -->
    <title>icon/google slides large</title>
    <desc>Created with Sketch.</desc>
    <g id="Loading" stroke="none" stroke-width="1" fill="none" fill-rule="evenodd">
        <g id="1---export-to-gs---loading" transform="translate(-414.000000, -385.000000)">
            <g id="loading---google-slides" transform="translate(390.000000, 361.000000)">
                <g id="progress-bar" transform="translate(24.000000, 24.000000)">
                    <g id="icon/google-slides-large">
                        <g id="google-slides-logo">
                            <path d="M20.7031598,32 L3.17522871,32 C1.42195803,32 0,30.6237429 0,28.9268213 L0,3.07375643 C0,1.37625711 1.42195803,0 3.17522871,0 L15.6212417,0 L23.8783885,8.11887695 L23.8783885,28.9268213 C23.8783885,30.6237429 22.4564304,32 20.7031598,32" id="Fill-2" fill="#F1B628"></path>
                            <path d="M15.9113642,6.75871142 C15.9113642,7.54501892 16.5698107,8.18284661 17.3822729,8.18284661 L24.1768683,8.18284661 L15.9113642,0.06396966 L15.9113642,6.75871142 Z" id="Fill-3" fill="#F7E9C3"></path>
                            <path d="M7.64585999,21.4587615 L16.8300852,21.4587615 L16.8300852,16.3239447 L7.64585999,16.3239447 L7.64585999,21.4587615 Z M17.5064405,12.9007335 L6.96890768,12.9007335 C6.32836991,12.9007335 5.80901496,13.3852342 5.80901496,13.9820989 L5.80901496,23.8006073 C5.80901496,24.3974721 6.32836991,24.8814165 6.96890768,24.8814165 L17.5064405,24.8814165 C18.1469783,24.8814165 18.6663332,24.3974721 18.6663332,23.8006073 L18.6663332,13.9820989 C18.6663332,13.3852342 18.1469783,12.9007335 17.5064405,12.9007335 L17.5064405,12.9007335 Z" id="Fill-4" fill="#FFFFFE"></path>
                        </g>
                    </g>
                </g>
            </g>
        </g>
    </g>
</svg>