<?xml version="1.0" encoding="UTF-8"?>
<svg width="22px" height="18px" viewBox="0 0 22 18" version="1.1" xmlns="http://www.w3.org/2000/svg" xmlns:xlink="http://www.w3.org/1999/xlink">
    <!-- Generator: Sketch 55.2 (78181) - https://sketchapp.com -->
    <title>icon-twitter</title>
    <desc>Created with Sketch.</desc>
    <g id="Symbols" stroke="none" stroke-width="1" fill="none" fill-rule="evenodd">
        <g id="footer" transform="translate(-1007.000000, -85.000000)" fill="#333333">
            <g id="twitter">
                <path d="M1013.90486,102.93365 C1011.36111,102.93365 1008.9934,102.184188 1007,100.89965 C1007.35239,100.941462 1007.71096,100.962852 1008.07452,100.962852 C1010.18485,100.962852 1012.12709,100.239058 1013.66868,99.0248251 C1011.6976,98.9882601 1010.03411,97.6793453 1009.46095,95.8806368 C1009.73593,95.9335067 1010.01813,95.9618386 1010.30836,95.9618386 C1010.71921,95.9618386 1011.11714,95.9065471 1011.49515,95.8030673 C1009.43445,95.3872108 1007.88186,93.5573453 1007.88186,91.3637668 C1007.88186,91.3447175 1007.88186,91.3257489 1007.88218,91.306861 C1008.48955,91.6459552 1009.18405,91.8496054 1009.92248,91.8730942 C1008.71385,91.0612377 1007.91856,89.6754798 1007.91856,88.1047982 C1007.91856,87.2751031 1008.14069,86.4973901 1008.52842,85.8287265 C1010.75005,88.5677937 1014.06909,90.3702152 1017.81272,90.5590135 C1017.73594,90.2276682 1017.69603,89.8821166 1017.69603,89.5272825 C1017.69603,87.0270583 1019.71288,85 1022.20057,85 C1023.4961,85 1024.66675,85.5498475 1025.48845,86.4297489 C1026.51447,86.2266637 1027.47848,85.8498744 1028.34878,85.3311031 C1028.01245,86.3882601 1027.29827,87.2755067 1026.36823,87.8358475 C1027.2794,87.7263946 1028.14753,87.4830314 1028.95534,87.1229507 C1028.35143,88.030861 1027.5877,88.8282691 1026.70769,89.466583 C1026.71636,89.6607085 1026.7207,89.8559641 1026.7207,90.0522691 C1026.7207,96.0349686 1022.19005,102.93365 1013.90486,102.93365"></path>
            </g>
        </g>
    </g>
</svg>