<?xml version="1.0" encoding="UTF-8"?>
<svg width="29px" height="29px" viewBox="0 0 29 29" version="1.1" xmlns="http://www.w3.org/2000/svg" xmlns:xlink="http://www.w3.org/1999/xlink">
    <!-- Generator: Sketch 52.6 (67491) - http://www.bohemiancoding.com/sketch -->
    <title>icon-select-orange</title>
    <desc>Created with Sketch.</desc>
    <g id="Page-1" stroke="none" stroke-width="1" fill="none" fill-rule="evenodd">
        <g id="icon-select-orange" fill="#C9510D">
            <g id="Group">
                <polygon id="Path" points="21.5 7.3 11.5 17.4 6.5 12.5 4.4 14.6 11.5 21.7 23.6 9.4"></polygon>
                <path d="M14.3,0 C6.4,0 0,6.5 0,14.4 C0,22.3 6.4,28.7 14.3,28.7 C22.2,28.7 28.6,22.3 28.6,14.4 C28.6,6.5 22.2,0 14.3,0 Z M14.3,26.8 C7.4,26.8 1.8,21.2 1.8,14.3 C1.8,7.4 7.4,1.9 14.3,1.9 C21.2,1.9 26.8,7.5 26.8,14.4 C26.8,21.3 21.1,26.8 14.3,26.8 Z" id="Shape" fill-rule="nonzero"></path>
            </g>
        </g>
    </g>
</svg>