<?xml version="1.0" encoding="UTF-8"?>
<svg width="30px" height="24px" viewBox="0 0 30 24" version="1.1" xmlns="http://www.w3.org/2000/svg" xmlns:xlink="http://www.w3.org/1999/xlink">
    <!-- Generator: Sketch 53.2 (72643) - https://sketchapp.com -->
    <title>icon/zip file</title>
    <desc>Created with Sketch.</desc>
    <g id="Loading" stroke="none" stroke-width="1" fill="none" fill-rule="evenodd">
        <g id="1---export-to-ZIP---loading-Copy" transform="translate(-414.000000, -169.000000)" fill="#333333" fill-rule="nonzero">
            <g id="loading-modal---slides" transform="translate(390.000000, 141.000000)">
                <g id="icon/zip-file" transform="translate(24.000000, 24.000000)">
                    <path d="M20.5803373,9.5061835 L20.5803373,11.7646839 L23.1015009,11.7646839 L23.1015009,13.2646839 L20.5803373,13.2646839 L20.5803373,15.8264062 L23.1015009,15.8264062 L23.1015009,17.3264062 L20.5803373,17.3264062 L20.5803373,19.8881284 L23.1015009,19.8881284 L23.1015009,21.3881284 L20.5803373,21.3881284 L20.5803373,23.1782981 L19.174087,23.1782981 L19.174087,19.3572673 L16.9955276,19.3572673 L16.9955276,17.8572673 L19.174087,17.8572673 L19.174087,15.295545 L16.9955276,15.295545 L16.9955276,13.795545 L19.174087,13.795545 L19.174087,9.5061835 L3.30322625,9.5061835 C2.77332215,9.5061835 2.34375,9.96628269 2.34375,10.5338438 L2.34375,25.4661562 C2.34375,26.0337173 2.77332215,26.4938165 3.30322625,26.4938165 L26.6988373,26.4938165 C27.2287414,26.4938165 27.6583135,26.0337173 27.6583135,25.4661562 L27.6583135,10.5338438 C27.6583135,9.96628269 27.2287414,9.5061835 26.6988373,9.5061835 L20.5803373,9.5061835 L20.5803373,9.5061835 Z M0.9375,25.4661562 L0.9375,6.52344134 C0.9375,5.12978317 1.99667172,4 3.30322732,4 L9.07369396,4.00000938 C10.2966945,4.00001039 11.4534678,4.59265325 12.2179689,5.61089729 C13.5107567,7.33276987 14.8911711,7.93430096 16.5546136,8 L26.6988373,8 C28.0053918,8 29.0645635,9.13444051 29.0645635,10.5338438 L29.0645635,25.4661562 C29.0645635,26.8655595 28.0053918,28 26.6988373,28 L3.30322625,28 C1.99667172,28 0.9375,26.8655595 0.9375,25.4661562 Z M2.34375,8.21705988 C2.6369993,8.07753153 2.96165929,8 3.30322625,8 L12.476215,8 C12.0054943,7.60687078 11.5544968,7.12681968 11.1203311,6.54855154 C10.6227101,5.88576687 9.86975548,5.50001003 9.07369234,5.50000938 L3.30322625,5.5 C2.77332215,5.5 2.34375,5.95821029 2.34375,6.52344119 L2.34375,8.21705988 Z" id="Shape"></path>
                </g>
            </g>
        </g>
    </g>
</svg>