<?xml version="1.0" encoding="utf-8"?>
<!-- Generator: Adobe Illustrator 18.1.1, SVG Export Plug-In . SVG Version: 6.00 Build 0)  -->
<!DOCTYPE svg PUBLIC "-//W3C//DTD SVG 1.1//EN" "http://www.w3.org/Graphics/SVG/1.1/DTD/svg11.dtd">
<svg version="1.1" xmlns="http://www.w3.org/2000/svg" xmlns:xlink="http://www.w3.org/1999/xlink" x="0px" y="0px"
	 viewBox="0 0 360 360" enable-background="new 0 0 360 360" xml:space="preserve">
<g id="Delete">
	<g>
		<polygon points="198,246 198,198 246,198 246,162 198,162 198,114 162,114 162,162 114,162 114,198 162,198 162,246 		"/>
		<polygon points="87,87 162,87 162,45 45,45 45,162 87,162 		"/>
		<polygon points="198,45 198,87 273,87 273,162 315,162 315,45 		"/>
		<polygon points="87,198 45,198 45,315 162,315 162,273 87,273 		"/>
		<polygon points="273,273 198,273 198,315 315,315 315,198 273,198 		"/>
	</g>
</g>
<g id="Layer_3" display="none">
</g>
<g id="Boxes">
</g>
</svg>
