<?xml version="1.0" encoding="UTF-8"?>
<svg width="415px" height="377px" viewBox="0 0 415 377" version="1.1" xmlns="http://www.w3.org/2000/svg" xmlns:xlink="http://www.w3.org/1999/xlink">
    <!-- Generator: Sketch 46.2 (44496) - http://www.bohemiancoding.com/sketch -->
    <title>Group 6</title>
    <desc>Created with Sketch.</desc>
    <defs>
        <polygon id="path-1" points="0 0 202.5 0 255 61 255 341 0 341"></polygon>
    </defs>
    <g id="Page-1" stroke="none" stroke-width="1" fill="none" fill-rule="evenodd">
        <g id="Group-6">
            <path d="M170,45.0981085 L170,366.098108 L405,366.098108 L405,99.8088446 L357.912891,45.0981085 L170,45.0981085 Z" id="Rectangle-2-Copy" stroke="#000000" stroke-width="20"></path>
            <g id="Rectangle-2">
                <use fill="#FFFFFF" fill-rule="evenodd" xlink:href="#path-1"></use>
                <path stroke="#000000" stroke-width="20" d="M10,10 L10,331 L245,331 L245,64.7107361 L197.912891,10 L10,10 Z"></path>
            </g>
            <path d="M70.347962,170.099892 L69.4452866,170.116615 L69.8869911,170.5 L69.4452866,170.883385 L70.347962,170.900108 L145.184123,235.855451 L145.184123,203.697742 L225.560002,203.697742 L225.560002,170.5 L225.560002,137.302258 L145.184123,137.302258 L145.184123,105.144549 L70.347962,170.099892 Z" id="Combined-Shape-Copy" fill="#000000" transform="translate(147.502644, 170.500000) rotate(-180.000000) translate(-147.502644, -170.500000) "></path>
            <path d="M264.299141,214.877765 L263.484827,214.895422 L263.881596,215.232631 L263.484827,215.56984 L264.299141,215.587498 L330.101409,271.512005 L330.101409,244.431919 L380.796532,244.431919 L380.796532,215.232631 L380.796532,186.033343 L330.101409,186.033343 L330.101409,158.953258 L264.299141,214.877765 Z" id="Combined-Shape-Copy-2" fill="#000000" transform="translate(322.140680, 215.232631) rotate(-360.000000) translate(-322.140680, -215.232631) "></path>
        </g>
    </g>
</svg>