<?xml version="1.0" encoding="UTF-8"?>
<svg width="14px" height="5px" viewBox="0 0 14 5" version="1.1" xmlns="http://www.w3.org/2000/svg" xmlns:xlink="http://www.w3.org/1999/xlink">
    <!-- Generator: Sketch 52.5 (67469) - http://www.bohemiancoding.com/sketch -->
    <title>icons_xls</title>
    <desc>Created with Sketch.</desc>
    <g id="Page-1" stroke="none" stroke-width="1" fill="none" fill-rule="evenodd">
        <g id="new-icons??" transform="translate(-595.000000, -357.000000)">
            <g id="icons_xls" transform="translate(595.000000, 352.000000)">
                <rect id="Rectangle-Copy-21" x="0" y="0" width="14" height="14"></rect>
                <path d="M0.147808125,5.0803305 L1.75120496,5.0803305 L2.58664218,6.52949277 L3.39637365,5.0803305 L4.98370438,5.0803305 L3.51847602,7.36171678 L5.12187285,9.79091118 L3.48634381,9.79091118 L2.5577232,8.27748451 L1.62588937,9.79091118 L0,9.79091118 L1.62588937,7.33601102 L0.147808125,5.0803305 Z M5.59100298,5.0803305 L7.04659169,5.0803305 L7.04659169,8.63093872 L9.31833831,8.63093872 L9.31833831,9.79091118 L5.59100298,9.79091118 L5.59100298,5.0803305 Z M9.72641726,8.23249943 L11.1113151,8.14574248 C11.1413053,8.37066902 11.2023559,8.54203904 11.2944687,8.6598577 C11.4444197,8.85050971 11.6586322,8.94583429 11.9371127,8.94583429 C12.144902,8.94583429 12.3050258,8.89710094 12.4174891,8.79963277 C12.5299524,8.70216461 12.5861832,8.5891675 12.5861832,8.46063805 C12.5861832,8.33853508 12.53263,8.22928669 12.4255221,8.1328896 C12.3184143,8.03649252 12.0699277,7.94545219 11.6800551,7.85976589 C11.0416922,7.71624134 10.5864905,7.52559219 10.3144365,7.28781272 C10.0402404,7.05003324 9.90314437,6.74692251 9.90314437,6.37847143 C9.90314437,6.13640763 9.97329897,5.90773576 10.1136103,5.69244893 C10.2539216,5.47716211 10.4649209,5.30793421 10.7466146,5.18476016 C11.0283083,5.0615861 11.4144264,5 11.9049805,5 C12.5069267,5 12.9658771,5.11192605 13.2818453,5.3357815 C13.5978135,5.55963695 13.785785,5.91576529 13.8457654,6.40417719 L12.4737204,6.48450769 C12.4373038,6.2724341 12.3607228,6.11820108 12.2439752,6.02180399 C12.1272276,5.92540691 11.9660327,5.87720909 11.7603856,5.87720909 C11.5911551,5.87720909 11.4636987,5.91308969 11.3780124,5.98485196 C11.2923261,6.05661424 11.2494836,6.14390584 11.2494836,6.2467294 C11.2494836,6.32170491 11.2848287,6.38918186 11.3555199,6.44916227 C11.4240689,6.51128483 11.5868704,6.56912222 11.8439293,6.62267615 C12.4801501,6.75977423 12.9358872,6.89847684 13.2111545,7.03878816 C13.4864217,7.17909947 13.6867104,7.35314715 13.8120266,7.56093642 C13.9373428,7.7687257 14,8.00114629 14,8.25820519 C14,8.56024939 13.9164571,8.83872568 13.7493688,9.09364241 C13.5822806,9.34855915 13.3487889,9.54188596 13.0488868,9.67362864 C12.7489848,9.80537133 12.3708997,9.87124168 11.9146202,9.87124168 C11.1134533,9.87124168 10.5586428,9.71700866 10.2501721,9.40853798 C9.94170146,9.10006731 9.76711825,8.70805838 9.72641726,8.23249943 Z" id="XLS" fill="#007534"></path>
            </g>
        </g>
    </g>
</svg>