<?xml version="1.0" encoding="UTF-8"?>
<svg width="16px" height="16px" viewBox="0 0 16 16" version="1.1" xmlns="http://www.w3.org/2000/svg" xmlns:xlink="http://www.w3.org/1999/xlink">
    <!-- Generator: Sketch 53 (72520) - https://sketchapp.com -->
    <title>icon-powerpoint</title>
    <desc>Created with Sketch.</desc>
    <g id="Working" stroke="none" stroke-width="1" fill="none" fill-rule="evenodd">
        <g id="2---image-group-page---export-options" transform="translate(-999.000000, -357.000000)" fill="#C9510D">
            <g id="export-dropdown" transform="translate(985.000000, 336.000000)">
                <g id="ppt-presentation-option" transform="translate(14.000000, 19.000000)">
                    <g id="heading">
                        <g id="icon/powerpoint" transform="translate(0.000000, 2.000000)">
                            <path d="M15.4738167,13.3409151 L15.4746922,2.2905554 L9.14911081,2.2905554 L9.14911081,4.82633669 C9.54650616,4.33625324 10.1374774,4.02500144 10.7979644,4.02500144 L10.7979644,6.30404604 L12.9647715,6.30404604 C12.9647715,7.56268201 11.9947031,8.58309065 10.7979644,8.58309065 C10.1374774,8.58309065 9.54650616,8.27183885 9.14911081,7.7817554 L9.14911081,9.57311079 L14.0811382,9.57311079 L14.0811382,10.2177151 L9.14911081,10.2177151 L9.14911081,11.3073727 L14.0811382,11.3073727 L14.0811382,11.951977 L9.14911081,11.951977 L9.14911081,13.3409151 L15.4738167,13.3409151 Z M15.4746922,1.73803741 C15.7643995,1.73803741 16,1.98584173 16,2.2905554 L16,13.3409151 C16,13.6456288 15.7643995,13.8934331 15.4746922,13.8934331 L9.14911081,13.8934331 L9.14911081,16 L0,14.3303827 L0,1.66961727 L9.14911081,0 L9.14911081,1.73803741 L15.4746922,1.73803741 Z M11.1335486,3.70260719 C12.3302873,3.70260719 13.3003557,4.72301583 13.3003557,5.9816518 L11.1335486,5.9816518 L11.1335486,3.70260719 Z M3.87128208,7.90242532 L3.87128208,6.32434187 C4.19749822,6.27001094 4.52222599,6.22746705 4.77358577,6.52582676 C4.96794966,6.75659511 4.98204542,7.30533755 4.81447223,7.60563108 C4.59279234,8.0036282 4.23628345,7.93189295 3.87128208,7.90242532 Z M3.845542,10.727634 L3.845542,8.9467764 C4.18918085,8.91703252 4.51145718,8.93121381 4.81263365,8.85413755 C5.41717538,8.69943252 5.80073762,8.25944403 5.93933133,7.63408576 C6.09482244,6.93192748 6.09473488,6.22792748 5.57432996,5.66279367 C5.43836279,5.51508719 5.22447497,5.37106417 5.04026703,5.36185554 C4.33950643,5.32686273 3.63611929,5.34776633 2.92914254,5.34776633 L2.92914254,10.727634 L3.845542,10.727634 Z" id="ppt-icon"></path>
                        </g>
                    </g>
                </g>
            </g>
        </g>
    </g>
</svg>