<?xml version="1.0" encoding="UTF-8"?>
<svg width="128px" height="110px" viewBox="0 0 128 110" version="1.1" xmlns="http://www.w3.org/2000/svg" xmlns:xlink="http://www.w3.org/1999/xlink">
    <!-- Generator: Sketch 46.2 (44496) - http://www.bohemiancoding.com/sketch -->
    <title>Group 4</title>
    <desc>Created with Sketch.</desc>
    <defs></defs>
    <g id="Page-1" stroke="none" stroke-width="1" fill="none" fill-rule="evenodd">
        <g id="Group-4">
            <rect id="Rectangle-Copy-6" fill="#8C8C8C" x="0.441363474" y="0" width="126.740201" height="110" rx="9"></rect>
            <path d="M87.2684955,43.8920898 C87.2684955,46.5669079 86.8024357,49.0458056 85.8703021,51.3288574 C84.9381685,53.6119092 83.634552,55.5909747 81.9594134,57.2661133 C79.8789994,59.3465273 77.4203651,60.9068145 74.5834369,61.9470215 C71.7465086,62.9872285 68.166629,63.5073242 63.8436908,63.5073242 L55.8192767,63.5073242 L55.8192767,86 L47.7948626,86 L47.7948626,25.6547852 L64.1679095,25.6547852 C67.7883703,25.6547852 70.8549087,25.9587372 73.3676165,26.5666504 C75.8803244,27.1745636 78.109306,28.1269466 80.0546283,29.4238281 C82.3511892,30.9638749 84.12762,32.88215 85.383974,35.1787109 C86.6403279,37.4752719 87.2684955,40.3797025 87.2684955,43.8920898 Z M78.9198626,44.0947266 C78.9198626,42.0143125 78.5551202,40.2041093 77.8256244,38.6640625 C77.0961285,37.1240157 75.9883922,35.8676806 74.5023822,34.8950195 C73.2055007,34.0574502 71.7262674,33.4563007 70.064638,33.0915527 C68.4030086,32.7268048 66.3023623,32.5444336 63.7626361,32.5444336 L55.8192767,32.5444336 L55.8192767,56.6582031 L62.5873431,56.6582031 C65.8295468,56.6582031 68.4637978,56.3677601 70.4901751,55.7868652 C72.5165525,55.2059704 74.164648,54.2806053 75.4345111,53.0107422 C76.7043742,51.7138607 77.6027213,50.3494538 78.1295794,48.9174805 C78.6564375,47.4855072 78.9198626,45.8779386 78.9198626,44.0947266 Z" id="P" fill="#FFFFFF"></path>
        </g>
    </g>
</svg>