<?xml version="1.0" encoding="utf-8"?>
<!-- Generator: Adobe Illustrator 21.0.0, SVG Export Plug-In . SVG Version: 6.00 Build 0)  -->
<svg version="1.1" id="Layer_1" xmlns="http://www.w3.org/2000/svg" xmlns:xlink="http://www.w3.org/1999/xlink" x="0px" y="0px"
	 viewBox="0 0 28.7 28.7" style="enable-background:new 0 0 28.7 28.7;" xml:space="preserve">
<g>
	<path d="M14.3,0C6.4,0,0,6.4,0,14.3c0,7.9,6.4,14.3,14.3,14.3c7.9,0,14.3-6.4,14.3-14.3C28.7,6.4,22.3,0,14.3,0z M10,22.1l-5.3-5.3
		l1.4-1.4L9,18.3v-12h2v12l2.7-2.8l1.4,1.4L10,22.1z M22.8,13l-2.9-2.9v12.1h-2V10.1l-2.7,2.8l-1.4-1.4l5.1-5.2l5.3,5.3L22.8,13z"/>
</g>
</svg>
