<?xml version="1.0" encoding="UTF-8"?>
<svg width="14px" height="14px" viewBox="0 0 14 14" version="1.1" xmlns="http://www.w3.org/2000/svg" xmlns:xlink="http://www.w3.org/1999/xlink">
    <!-- Generator: Sketch 52.5 (67469) - http://www.bohemiancoding.com/sketch -->
    <title>audio</title>
    <desc>Created with Sketch.</desc>
    <g id="Page-1" stroke="none" stroke-width="1" fill="none" fill-rule="evenodd">
        <g id="new-icons??" transform="translate(-440.000000, -201.000000)">
            <g id="audio" transform="translate(440.000000, 201.000000)">
                <rect id="Rectangle-Copy-10" fill="#255B57" x="0" y="0" width="14" height="14" rx="2"></rect>
                <path d="M7.15647607,3.04520092 C7.3033081,2.93693539 7.51790877,3.03437437 7.506614,3.21842577 L7.506614,10.7815742 C7.506614,10.9656256 7.29201333,11.0630646 7.14518129,10.9547991 L4.75068965,8.5995912 C4.71680533,8.57793809 4.67162624,8.55628499 4.61515238,8.55628499 L3.22589544,8.55628499 C3.10165295,8.55628499 3,8.45884601 3,8.33975392 L3,5.74459555 C3,5.62550347 3.10165295,5.52806449 3.22589544,5.52806449 L4.62644716,5.52806449 C4.67162624,5.52806449 4.71680533,5.51723794 4.76198442,5.48475828 L7.15647607,3.04520092 Z M9.48956132,4.20737635 C9.37797666,4.0406896 9.40885119,3.80482171 9.55852149,3.68055068 C9.7081918,3.55627965 9.91998079,3.59066438 10.0315654,3.75735114 C10.6767291,4.7211058 11,5.84262665 11,7.1096118 C11,8.38577537 10.6714652,9.44131376 10.0118135,10.2575601 C9.88692334,10.4120979 9.67319135,10.4246214 9.53442975,10.2855321 C9.39566814,10.1464428 9.3844231,9.90841106 9.50931326,9.75387325 C10.0515395,9.08292802 10.3239437,8.20772984 10.3239437,7.1096118 C10.3239437,6.00231533 10.0462756,5.03900415 9.48956132,4.20737635 Z M8.27091613,5.18403467 C8.17283684,5.00712643 8.22209988,4.77516539 8.3809482,4.66593519 C8.53979652,4.55670499 8.7480775,4.61156888 8.84615679,4.78847712 C9.184401,5.39857729 9.35153568,6.13614155 9.35153568,6.9940402 C9.35153568,7.85193886 9.184401,8.58950312 8.84615679,9.19960328 C8.7480775,9.37651153 8.53979652,9.43137542 8.3809482,9.32214522 C8.22209988,9.21291501 8.17283684,8.98095398 8.27091613,8.80404573 C8.53929999,8.31995457 8.67547934,7.71899595 8.67547934,6.9940402 C8.67547934,6.26908445 8.53929999,5.66812584 8.27091613,5.18403467 Z" id="Shape" fill="#FFFFFF"></path>
            </g>
        </g>
    </g>
</svg>