<?xml version="1.0" encoding="UTF-8"?>
<svg width="19px" height="19px" viewBox="0 0 19 19" version="1.1" xmlns="http://www.w3.org/2000/svg" xmlns:xlink="http://www.w3.org/1999/xlink">
    <!-- Generator: Sketch 55.2 (78181) - https://sketchapp.com -->
    <title>icon-facebook</title>
    <desc>Created with Sketch.</desc>
    <g id="Symbols" stroke="none" stroke-width="1" fill="none" fill-rule="evenodd">
        <g id="footer" transform="translate(-1047.000000, -84.000000)" fill="#333333">
            <g id="facebook">
                <path d="M1060.1044,102.788522 L1060.1044,95.512673 L1062.57319,95.512673 L1062.9428,92.6770947 L1060.1044,92.6770947 L1060.1044,90.8667033 C1060.1044,90.0457372 1060.33482,89.4862948 1061.52492,89.4862948 L1063.04278,89.4855909 L1063.04278,86.9494801 C1062.7802,86.9149857 1061.87923,86.8377606 1060.83103,86.8377606 C1058.64261,86.8377606 1057.14446,88.1591766 1057.14446,90.5859614 L1057.14446,92.6770947 L1054.6694,92.6770947 L1054.6694,95.512673 L1057.14446,95.512673 L1057.14446,102.788522 L1048.0482,102.788522 C1047.46916,102.788522 1047,102.324185 1047,101.751579 L1047,85.0370135 C1047,84.4641957 1047.46916,84 1048.0482,84 L1064.94418,84 C1065.52301,84 1065.99239,84.4641957 1065.99239,85.0370135 L1065.99239,101.751579 C1065.99239,102.324185 1065.52301,102.788522 1064.94418,102.788522 L1060.1044,102.788522 Z"></path>
            </g>
        </g>
    </g>
</svg>