<?xml version="1.0" encoding="UTF-8"?>
<svg width="16px" height="14px" viewBox="0 0 16 14" version="1.1" xmlns="http://www.w3.org/2000/svg" xmlns:xlink="http://www.w3.org/1999/xlink">
    <!-- Generator: Sketch 53.2 (72643) - https://sketchapp.com -->
    <title>icon-add-detail-view</title>
    <desc>Created with Sketch.</desc>
    <g id="Working" stroke="none" stroke-width="1" fill="none" fill-rule="evenodd">
        <g id="download---add-to-group" transform="translate(-861.000000, -265.000000)" fill="#333333" fill-rule="nonzero">
            <g id="add-to-group-selector" transform="translate(849.000000, 211.000000)">
                <path d="M15.7988334,66 L12,66 L12,54 L26,54 L26,57.9871139 C24.8101804,56.6648056 23.0855239,55.8333333 21.1666667,55.8333333 C17.5768158,55.8333333 14.6666667,58.7434825 14.6666667,62.3333333 C14.6666667,63.6935961 15.0845048,64.9562675 15.7988334,66 L15.7988334,66 Z M21.7916667,61.725 L23.0416667,61.725 L23.0416667,62.975 L21.7916667,62.975 L21.7916667,64.225 L20.5416667,64.225 L20.5416667,62.975 L19.2916667,62.975 L19.2916667,61.725 L20.5416667,61.725 L20.5416667,60.475 L21.7916667,60.475 L21.7916667,61.725 Z M25.1415697,64.9348285 L27.5548522,66.889154 L26.610846,68.0548522 L24.1300283,66.0458354 C23.3176603,66.6951264 22.2874988,67.0833333 21.1666667,67.0833333 C18.5433141,67.0833333 16.4166667,64.9566859 16.4166667,62.3333333 C16.4166667,59.7099808 18.5433141,57.5833333 21.1666667,57.5833333 C23.7900192,57.5833333 25.9166667,59.7099808 25.9166667,62.3333333 C25.9166667,63.2937274 25.6316429,64.1875506 25.1415697,64.9348285 L25.1415697,64.9348285 Z M17.9166667,62.3333333 C17.9166667,64.1282588 19.3717412,65.5833333 21.1666667,65.5833333 C22.9615921,65.5833333 24.4166667,64.1282588 24.4166667,62.3333333 C24.4166667,60.5384079 22.9615921,59.0833333 21.1666667,59.0833333 C19.3717412,59.0833333 17.9166667,60.5384079 17.9166667,62.3333333 Z" id="icon-add-detail-view"></path>
            </g>
        </g>
    </g>
</svg>