<?xml version="1.0" encoding="utf-8"?>
<!-- Generator: Adobe Illustrator 18.1.1, SVG Export Plug-In . SVG Version: 6.00 Build 0)  -->
<!DOCTYPE svg PUBLIC "-//W3C//DTD SVG 1.1//EN" "http://www.w3.org/Graphics/SVG/1.1/DTD/svg11.dtd">
<svg version="1.1" id="Layer_1" xmlns="http://www.w3.org/2000/svg" xmlns:xlink="http://www.w3.org/1999/xlink" x="0px" y="0px"
	 viewBox="0 0 16 16" enable-background="new 0 0 16 16" xml:space="preserve">
<g display="none">
	<path display="inline" d="M14.8,5.7h-3.7V0.2H5.6v5.5H1.9l6.5,6.4L14.8,5.7z M1.9,14v1.8h12.9V14H1.9z M1.9,14"/>
</g>
<g>
	<g>
		<path d="M15,7l-3.8,2.7l1.4,4.4c0.1,0.2,0,0.5-0.2,0.7c-0.1,0.1-0.2,0.1-0.3,0.1c-0.1,0-0.2,0-0.3-0.1L8,12.1l-3.8,2.7
			C4,15,3.7,15,3.5,14.8c-0.2-0.1-0.3-0.4-0.2-0.7l1.4-4.4L1,7C0.8,6.8,0.7,6.6,0.8,6.3c0.1-0.2,0.3-0.4,0.6-0.4H6l1.4-4.4
			C7.5,1.2,7.7,1.1,8,1.1c0.3,0,0.5,0.2,0.6,0.4L10,5.9h4.7c0.3,0,0.5,0.2,0.6,0.4C15.3,6.6,15.2,6.8,15,7L15,7z M15,7"/>
	</g>
</g>
<g display="none">
	<path display="inline" d="M15.7,5.7l-4.3-4.3c-0.1-0.1-0.2-0.2-0.4-0.2c-0.1,0-0.3,0.1-0.4,0.2c-0.1,0.1-0.2,0.2-0.2,0.4V4H8.6
		c-4,0-6.4,1.1-7.3,3.4C1,8.1,0.9,9,0.9,10.1c0,0.9,0.4,2.2,1.1,3.8c0,0,0,0.1,0.1,0.2c0,0.1,0.1,0.2,0.1,0.3c0,0.1,0.1,0.1,0.1,0.2
		c0.1,0.1,0.1,0.1,0.2,0.1c0.1,0,0.1,0,0.2-0.1c0-0.1,0.1-0.1,0.1-0.2c0-0.1,0-0.1,0-0.2c0-0.1,0-0.2,0-0.2c0-0.4,0-0.7,0-1
		c0-0.6,0-1.1,0.1-1.5C2.9,11,3,10.6,3.2,10.3C3.4,10,3.6,9.7,3.9,9.4C4.1,9.2,4.4,9,4.8,8.9c0.3-0.2,0.7-0.3,1.1-0.4
		c0.4-0.1,0.9-0.1,1.3-0.2c0.4,0,0.9-0.1,1.5-0.1h1.9v2.1c0,0.1,0.1,0.3,0.2,0.4c0.1,0.1,0.2,0.2,0.4,0.2c0.1,0,0.3-0.1,0.4-0.2
		l4.3-4.3c0.1-0.1,0.2-0.2,0.2-0.4C15.9,6,15.8,5.9,15.7,5.7L15.7,5.7z M15.7,5.7"/>
</g>
</svg>
